<svg xmlns="http://www.w3.org/2000/svg" viewBox="0 0 89.33 97.63"><defs><style>.cls-1{fill:#1d1d1b;}.cls-2{fill:none;stroke:#1d1d1b;stroke-miterlimit:10;stroke-width:2px;}</style></defs><title>calendario</title><g id="Capa_2" data-name="Capa 2"><g id="Capa_1-2" data-name="Capa 1"><path class="cls-1" d="M85.36,22,11.08,15a4.39,4.39,0,0,0-4.76,3.95L0,85.86a4.38,4.38,0,0,0,4,4.76l74.28,7a4.38,4.38,0,0,0,4.76-4l6.3-66.94A4.4,4.4,0,0,0,85.36,22Zm-6.53,67.5a3,3,0,0,1-3.24,2.68L7.64,85.74A3,3,0,0,1,5,82.5L10,28.6a3,3,0,0,1,3.24-2.68l68,6.39a3,3,0,0,1,2.68,3.23Z"/><circle class="cls-1" cx="49.63" cy="3.53" r="1.66"/><path class="cls-2" d="M13.27,16.18,48.05,1.54A4.53,4.53,0,0,1,49.86,1a3.57,3.57,0,0,1,1.49.77L81.33,23"/><path class="cls-1" d="M70.05,39.74,22.86,35.3A3,3,0,0,0,19.62,38L16.13,75.07a3,3,0,0,0,2.68,3.24L66,82.74a3,3,0,0,0,3.24-2.67L72.72,43A3,3,0,0,0,70.05,39.74Zm-4.47,13.1L39.29,74.43a2,2,0,0,1-2.86-.29L23.86,58.83A2,2,0,0,1,24.15,56l5.22-4.29a2,2,0,0,1,2.86.28l7,8.53,19.49-16a2,2,0,0,1,2.85.29L65.86,50A2,2,0,0,1,65.58,52.84Z"/></g></g></svg>