<svg xmlns="http://www.w3.org/2000/svg" viewBox="0 0 98.71 94.47"><defs><style>.cls-1{fill:#1d1d1b;stroke:#1d1d1b;stroke-miterlimit:10;stroke-width:6px;}</style></defs><title>star</title><g id="Capa_2" data-name="Capa 2"><g id="Capa_1-2" data-name="Capa 1"><path class="cls-1" d="M52.07,4.68,59.9,20.56A20.86,20.86,0,0,0,75.6,32l17.52,2.54a3,3,0,0,1,1.68,5.16L82.12,52a20.83,20.83,0,0,0-6,18.45l3,17.45a3,3,0,0,1-4.38,3.19L59.06,82.88a20.82,20.82,0,0,0-19.41,0L24,91.12a3,3,0,0,1-4.38-3.19l3-17.45a20.83,20.83,0,0,0-6-18.45L3.92,39.67a3,3,0,0,1,1.67-5.16L23.11,32a20.86,20.86,0,0,0,15.7-11.41L46.65,4.68A3,3,0,0,1,52.07,4.68Z"/></g></g></svg>