<?xml version="1.0" encoding="utf-8"?>
<!-- Generator: Adobe Illustrator 24.0.1, SVG Export Plug-In . SVG Version: 6.00 Build 0)  -->
<svg version="1.1" id="Capa_1" xmlns="http://www.w3.org/2000/svg" xmlns:xlink="http://www.w3.org/1999/xlink" x="0px" y="0px"
	 viewBox="0 0 24 24" style="enable-background:new 0 0 24 24;" xml:space="preserve">
<title>star-off</title>
<path d="M12.9,1.6c-0.1-0.2-0.2-0.4-0.5-0.5c-0.5-0.2-1.1,0-1.3,0.5L8.2,7.3L1.9,8.3c-0.2,0-0.4,0.1-0.6,0.3c-0.4,0.4-0.4,1,0,1.4
	l4.6,4.5l-1.1,6.4c0,0.2,0,0.4,0.1,0.6c0.3,0.5,0.9,0.7,1.4,0.4l5.7-3l5.7,3c0.2,0.1,0.4,0.1,0.6,0.1c0.5-0.1,0.9-0.6,0.8-1.2
	l-1.1-6.4l4.6-4.5C22.8,9.8,23,9.6,23,9.4c0.1-0.5-0.3-1.1-0.8-1.1l-6.4-0.9L12.9,1.6z"/>
</svg>
