<svg version="1" xmlns="http://www.w3.org/2000/svg" width="1621.333" height="1621.333" viewBox="0 0 1216.000000 1216.000000"><path d="M1040.6 178.7c-.1.1-2.9.5-6.2.7-3.2.3-8.4.7-11.4 1-3 .3-8 .7-11 1-10.8.9-19.6 1.7-23 2.2-1.9.3-5.1.7-7 .9-10.9 1.1-22.5 2.4-26 3-1.4.3-5.6.7-9.5 1.1-3.8.4-7.2.8-7.5.9-.8.5-18 1.8-24.2 1.9-3.2.1-5.8.3-5.8.6s-4 .4-9 .4c-6.1-.1-9 .2-9.1 1-.2 2.2.8 21.1 1.1 21.1.6 0 .4 5.7-.2 6.1-.5.3-.6 1-.3 1.5s.8 4.1 1 8.1c.5 7.1.7 8.9 2.1 13.5.5 2 .2 2.3-2 2.4-1.4.1-2.9.2-3.3.3-.9.2-11.6 1.7-15.3 2.1-1.4.2-5 .6-8 1-3 .3-7.1.8-9 1-1.9.3-5.1.7-7 1-1.9.4-5.1.8-7 1-4.9.5-14.9 1.6-18.5 2-4.1.5-10.9 1.3-17.5 1.9-3 .3-7.1.8-9 1.1-1.9.3-6.6.8-10.5 1.1-3.8.3-8.6.7-10.5 1-1.9.2-6.6.6-10.5.9-3.8.3-8.6.7-10.5 1-4.9.6-23.9 2-42 3-24.6 1.4-29.6 1.8-40.5 3-7.8.9-11.5 1.3-19 2-3.8.4-8.6.9-10.5 1.1-1.9.3-5.3.7-7.5.8-2.2.2-6.9.7-10.5 1-10.4 1-15.1 1.5-21.5 2.1-3.3.3-8.5.8-11.5 1.1-3 .3-7.5.7-10 .9-2.5.2-7.4.6-11 .9-16.9 1.4-29.9 2.4-40.5 3.1-3.3.2-8.5.6-11.5.9-3 .3-8.4.8-12 1.1-3.6.3-8.1.8-10 1-5.5.7-18.1 1.8-22.2 1.9-2.1.1-3.8.3-3.8.6s-2.4.6-5.3.7c-4.8.2-13.2 1-13.2 1.3 0 0-2.2.3-5 .5-12.8 1.1-17.4 1.5-22.5 2.1-6.5.7-10.1 1-19.5 1.9-3.8.3-8.6.8-10.5 1-1.9.3-6.6.7-10.5 1.1-3.8.3-8.6.8-10.5 1-1.9.2-6.4.6-10 .9-3.6.4-7.6.8-9 1.1-1.4.2-6.4.7-11.1 1-7.7.5-12.4 1-12.4 1.4 0 0-2 .2-4.5.4-5.8.5-20.2 1.8-21.4 2-.6 0-1.2-.7-1.4-1.6-.4-1.9 1.8-2.7 8.7-3.1 3.3-.2 4.6-.8 5.1-2.2.4-1.1.6-2.3.4-2.6-.4-.7-1.2-10.7-1.9-22.9-.9-15.7-1.9-19.4-6.5-22.5-2.7-1.9-4.2-2.1-27.2-1.9-13.4.1-27.7.4-31.8.8-4.1.3-10.6.9-14.5 1.2-6.8.6-8.2.7-17.5 1.9-7.4 1-9.8.6-12.6-2-1.5-1.4-3.3-2.5-4-2.5-.8 0-1.4-.5-1.4-1 0-.6-.5-1-1-1-.6 0-2.9-.9-5.3-1.9-8.7-3.9-12.5-4.6-25.2-4.5-8.3 0-19 .8-19 1.4 0 .1-.8.3-1.7.5-11 2.1-20.9 8.9-28.1 19.2-2.1 3.1-2.6 3.3-8.7 3.4-3.6.1-7.4.3-8.5.4-1.1.1-5.8.6-10.5 1s-9.8.9-11.5 1.1c-7.5.9-11.2 1.3-13.5 1.8-1.4.3-4.3.7-6.5 1.1-4.3.6-24.6 4.8-33.5 6.9l-5.5 1.3.2 12.4c.1 6.8.4 14.4.7 16.9.2 2.5.7 8.1 1.1 12.5.4 4.4.9 8.4 1.2 8.8.3.5 2.1.6 4.2.3 9.3-1.4 11.4-1.2 11.7 1.1.2 1.2.4 2.6.5 3 .6 3.4-.4 5.2-3.3 6.4l-3.9 1.3c-3.3.6-26 18.6-23.4 18.6.3 0-.4 1-1.5 2.2-2.4 2.6-7 12-7.7 15.7-.2 1.4-.6 2.9-.9 3.3-3 4.8-2.2 36.1 1.1 45.6.5 1.5 1.5 9.7 3.1 25.2.3 3.6.8 7.6 1 9 .3 1.4.7 4.3 1 6.5.3 2.2.7 4.7 1 5.6.2.9.7 3.4.9 5.5.3 2 .8 5.1 1.1 6.8.4 1.7.8 4.4.9 6.1.2 1.6.4 3 .5 3 .2 0 .3 1 1.4 9.6.4 3.1.9 6.7 1.2 8 .6 2.5.6 3.2 1.9 13.9.4 3.6.9 7.6 1.1 9 .2 1.4.5 4.5.7 7 .3 2.5.7 6.3 1.1 8.5.4 2.2.8 5.8 1.1 8 .2 2.2.7 6.5 1 9.5.4 3 .9 7.7 1.1 10.5.3 2.7.7 6.8.9 9 .2 2.2.6 6.7.9 10 .3 3.3.8 8.5 1.1 11.5.7 7.4 1.4 16.1 2 24 .2 3.6.6 9.4.9 13 .3 3.6.8 10.8 1.1 16 .9 13.3 1.4 19.1 1.9 22 .3 1.4.7 4.5 1 7 .3 2.5.8 5.6 1 7 .3 1.4.7 4.5 1 7 .4 2.5.8 5.6 1 7 .3 1.4.7 4.7 1.1 7.5.3 2.7.8 6.5 1.1 8.3.4 1.7.8 4.7 1 6.5.2 1.7.6 5 .9 7.2.2 2.2.7 6.3 1 9.2.2 2.9.7 6.3 1 7.5.3 1.3.7 4.5 1 7.3 1 11.7 1.6 18.2 2.1 20.5.2 1.4.7 5.6.9 9.5.3 3.8.7 8.8 1 11 1.1 9.7 2.1 20.5 3 33 .3 3.8.7 9.2 1 12 .2 2.7.7 9 1 14 .3 4.9.8 11.7 1 15 .8 10.9 1.8 31.9 1.9 38.7 0 3.8.5 6.8 1 6.8s.3.6-.3 1.3c-.6.8-.8 1.7-.5 2 .4.3.8 7 .9 14.8.2 7.8.7 17.3 1.1 21.3.4 3.9.7 7.5.6 7.9-.1.4.2 1.6.8 2.6.5 1 1.2 4.9 1.5 8.7.4 3.8.8 8.2.9 9.9.2 1.6.7 6.1 1 10 1.3 12.4 2.9 17.1 8.1 24 7.6 10.1 18.7 15.1 31.3 14.2 3.7-.3 6.7-.6 6.7-.7 0-.3 6.4-1.4 14.5-2.6 6.8-.9 10.8-1.5 18.5-2.9 1.7-.3 5-.8 7.5-1 2.5-.3 5.4-.7 6.6-.9 1.1-.3 4.5-.8 7.5-1.2 3-.3 6.5-.8 7.9-1 1.4-.3 4.1-.7 6-.9 1.9-.2 5.8-.7 8.5-1.1 6.4-.9 8.7-1.1 15.5-1.8 3-.3 7.1-.8 9-1.1 1.9-.3 5.5-.7 8-1 2.5-.2 6.5-.6 9-.9 10.6-1.3 18.2-2 31.5-3 3.8-.3 9.2-.8 12-1.1 5.4-.6 17-1.5 25-2 2.8-.1 9.7-.6 15.5-1 12.1-.8 19.5-1.1 41-2 8.5-.3 18-.8 21-1.1 3-.2 9.1-.6 13.5-.9 4.4-.4 9.6-.8 11.5-1 1.9-.1 6.4-.6 10-.9 11.1-1.1 14.1-1.5 26.2-3.7 3.2-.5 6.9-1.2 8.3-1.5 1.4-.2 3.7-.6 5.3-.9 1.5-.3 4.5-.8 6.7-1.1 2.2-.2 4.7-.7 5.5-1 .8-.3 3.3-.8 5.5-1 2.2-.3 4.6-.7 5.3-.9 1.7-.6 15.8-1.9 20.9-2 2.4 0 4.3-.2 4.3-.5s1.2-.5 2.7-.6c1.6-.1 6.6-.4 11.3-.9 4.7-.4 10.5-.9 13-1.1 5.4-.4 13.3-1.1 21.5-1.9 3.3-.3 8.3-.7 11-1 2.8-.2 8.6-.7 13-1.1 4.4-.4 9.6-.8 11.5-.9 1.9-.2 3.5-.4 3.5-.5 0 0 3.2-.3 7-.5 3.9-.2 9.5-.6 12.5-.9 3-.3 8.4-.8 12-1.1 6.9-.6 13.7-1.2 21-1.9 2.5-.3 7.9-.8 12-1.1 9.5-.8 14.4-1.3 19.5-1.9 2.2-.3 7.6-.8 12-1.2 13.5-1.2 14-1.2 14-1.4 0-.1 2-.3 4.5-.5s6.5-.6 9-.9c2.5-.3 7.7-.8 11.5-1.2 3.9-.3 8.8-.8 11-1 2.2-.2 8.3-.6 13.5-1 5.2-.3 11.8-.7 14.5-.9 2.8-.2 9.1-.6 14-.9 5-.4 10.8-.8 13-1.1 4.5-.5 20.4-1.6 28-2 2.8-.2 5-.4 5-.5 0-.1 1.9-.3 4.1-.5 5.4-.4 22.3-2.1 30.9-3 4.3-.5 14-1.4 20.8-2 2.3-.2 4.2-.4 4.2-.5 0-.1 2.3-.3 5-.5 2.8-.1 6.8-.5 9-.9 2.2-.3 6.7-.8 10-1.1 3.3-.3 7.8-.7 10-.9 2.2-.3 7.4-.8 11.5-1.1 4.1-.4 8.6-.8 10-1 6.8-.7 17.9-1.8 21.5-2.1 2.2-.1 6.1-.5 8.8-.8 2.6-.4 6.8-.8 9.3-1.1 2.5-.3 5-.8 5.6-1.1.7-.5.8-.2.3.6-.5.9-.4 1.1.4.6.6-.4 7.3-.9 14.9-1.2 13.6-.5 27.7-1.2 27.7-1.3 0-.1 4.3-.3 9.5-.6 8.9-.4 15.8-.9 29-2 3-.2 8.9-.7 13-1 4.1-.3 9.1-.8 11-1 1.9-.2 6.6-.7 10.5-1 3.8-.4 7.3-.9 7.7-1.1.3-.2 1 0 1.3.6.4.7 1.1.8 1.8.2.7-.6 4.1-1.3 7.7-1.7 3.6-.3 7.6-.8 9-1 1.4-.2 5-.7 8-1 3-.3 6.4-.7 7.5-.9 1.1-.2 4.5-.7 7.5-1 10.6-1.3 16.4-2.1 22.5-3.1 2.2-.3 6.9-1.1 10.5-1.6 18.4-2.7 29.1-10 32.5-22.1.9-3.5 1.7-6.3 1.7-6.3-.1 0 .4-1.8.9-4 .6-2.2 1.3-5.6 1.5-7.5.9-6.1 1.1-30.4.3-33.2-.4-1.5-.3-3 .2-3.3.5-.4.5-1.3-.1-2.4-.5-1-.7-2-.5-2.3.2-.2 0-2-.5-3.9s-1.1-5-1.4-6.9c-.3-1.9-.7-4.4-1-5.5-.2-1.1-.7-4.5-1.1-7.5-.4-3-.9-6.4-1.2-7.5-.5-2.5-1.3-13.8-1.6-22.7-.1-3.8-.4-6.8-.7-6.8-.3 0-.5-1.2-.6-2.8-.1-3-1.1-13.7-1.9-19.7-.3-2.2-.8-6.3-1.1-9-1-9.3-1.2-11-1.3-11-.1 0-.4-3.2-.6-7-.3-3.9-.7-8.1-1-9.5-.3-1.4-.7-5-1-8-.7-7.7-1.4-12.1-2.1-13.1-.3-.5 0-.9.6-.9s.8-.5.5-1c-.7-1.1-.8-1.9-2-13.5-1.5-13.3-2.2-20.5-3-29.3-.8-8.3-1.4-12.3-2.2-13.5-.4-.6-.1-.7.7-.2.8.5 1.1.4.6-.3-.6-1-1.2-5.3-2-14.7-.7-7.7-1.6-17.5-2.2-22.5-.3-2.5-.7-7-1-10-.2-3-.7-8-1-11-.2-3-.7-8-.9-11-.2-3.1-.7-8.3-1-11.5-.4-3.3-.8-7.8-1-10-.2-2.2-.6-7.6-1-12s-.8-10.4-.8-13.2c-.1-2.9-.4-5.3-.7-5.3-.3 0-.6-2.4-.6-5.3-.1-2.8-.4-7.8-.8-11-.3-3.1-.8-8.1-1.1-11-1.6-18.1-2-22.2-2.5-22.2-.1 0-.3-1.6-.6-3.5-.2-1.9-1.1-7.6-2-12.5-.9-5-1.8-10.6-2-12.5-.3-1.9-.7-4.6-.9-6-.3-1.4-.8-4.1-1.1-6-.5-3.4-1-6.2-1.9-10.5-.2-1.1-.6-3.8-.9-6-.2-2.2-1-6.5-1.6-9.5-.6-3-1.3-6.9-1.6-8.5-.2-1.7-.7-3.7-.9-4.5-.2-.8-.7-4-1.1-7-.3-3-.8-6.6-1-8-.2-1.4-.5-4.8-.8-7.5-.3-2.8-.8-6.4-1-8-.9-5.6-2.5-21.6-3.2-31.5-1.1-17.4-1.5-29.6-1.9-56.5-.5-33.2-.5-32.9-2.9-40.1-1.8-5.6-6-10.5-12.9-15.3-9.2-6.3-15.6-7.4-33.7-5.7-3.6.3-8.7.8-11.5 1-2.7.2-6.8.7-9 1-2.2.3-7.1.8-11 1.1-3.8.4-8.9.8-11.2 1.1-2.4.2-4.3.1-4.4-.3 0-.5-.3-2.2-.6-3.8-.2-1.7-.6-4.5-.6-6.2-.1-1.8-.4-3.3-.7-3.3-.3 0-.5-2.1-.5-4.8.1-2.6-.2-6.7-.6-9.2-.4-2.5-1-8.4-1.4-13.2l-.7-8.8-5.5.3c-3 .1-5.5.3-5.7.4z"/></svg>