<svg xmlns="http://www.w3.org/2000/svg" viewBox="0 0 397.82 269.15"><defs><style>.cls-1{fill:#b7a397;}.cls-2,.cls-8{fill:none;}.cls-2,.cls-4,.cls-5,.cls-6,.cls-8{stroke:#b7a397;}.cls-2,.cls-4,.cls-5,.cls-6{stroke-miterlimit:10;}.cls-2,.cls-4,.cls-5{stroke-width:0.5px;}.cls-3,.cls-4,.cls-6{fill:#fff;}.cls-5,.cls-7{fill:#efded0;}.cls-6{stroke-width:0.43px;}.cls-8{stroke-linecap:round;stroke-linejoin:round;stroke-width:0.14px;}</style></defs><title>Logo-completo-ElenaC</title><g id="slogan"><path class="cls-1" d="M252.17,407.31a1.2,1.2,0,0,1-.43.08l-.06,0a10,10,0,0,1-1.54,0c-1.3,0-2.62,0-3.95,0l0,.06-.07,0-.1.06a1.53,1.53,0,0,1-.14-.68.59.59,0,0,1,.2-.18.49.49,0,0,0,.29-.06l.7,0c.23-.13.54-.11.7-.37a2.53,2.53,0,0,0,.08-.66c0-.11-.08-.23-.08-.35a6.5,6.5,0,0,1,.12-.87l-.08-.39c.06-.22.08-2.18.08-2.43,0-.67-.06-1.33-.06-2,0-.45.08-.89.08-1.34,0-.74-.08-1.46-.08-2.2a4.68,4.68,0,0,0-.08-1.19.72.72,0,0,0-.33-.29,6.49,6.49,0,0,0-1.36-.17l-.12-.06a1.32,1.32,0,0,1-.1-.47v-.15c.06,0,.16-.08.18-.14h.13a1.6,1.6,0,0,1,.53.06,16.46,16.46,0,0,1,2,0,2.72,2.72,0,0,1,.39,0l0,0a3.86,3.86,0,0,1,.94-.1c.33,0,.64.08,1,.08s.62-.1.93-.1c.06,0,.37.08.47.1l.33-.12c.49,0,1,.08,1.42.08s1-.08,1.54-.06l.21.12a2,2,0,0,1,.2.85c.35.49.37,1.42.66,2,0,0-.06,0,0,0l-.06.12a.87.87,0,0,1-.39.1c-.52-.25-.7-.92-1.2-1.15-.33-.51-.74-.66-1-1a6.62,6.62,0,0,0-2.37-.35c-.33,0-.7,0-1.05,0l-.29.19c-.41.49-.25,2.61-.25,3.25,0,.22-.08.43-.08.64s.08.43.1.65c0,.38-.06.79,0,1.2a13.34,13.34,0,0,0,1.79,0l.6-.29c.14-.15.45-.37.51-.53l0-.11a10.67,10.67,0,0,1,.27-1.32,1.66,1.66,0,0,0,.19-.18.69.69,0,0,0,.35-.08l.14.06,0,.06.06,0,0,.13a8.39,8.39,0,0,0-.08,1.74c0,.77,0,1.57-.08,2.35h-.06a6.48,6.48,0,0,1,.18.9l0,.19c0,.06-.06.12-.08.17l-.08,0-.08.08a.65.65,0,0,0-.39,0,.32.32,0,0,0-.15-.13c0-.06,0-.18,0-.22a14.34,14.34,0,0,1-.29-1.48l-.22-.27-.56-.25a3.13,3.13,0,0,1-.43,0c-.37,0-.76-.1-1.15-.1l-.52,0a4.9,4.9,0,0,1,0,.54c0,.22-.08.43-.08.65s.1.44.1.66c0,.5-.06,1-.06,1.5a10.79,10.79,0,0,0,.11,1.88l.08.1c.2.1.41.14.62.23a1.91,1.91,0,0,1,.67.06l.37-.1c.09.06.33.16.38.28v.07a.8.8,0,0,1,.08.37Z" transform="translate(-222.03 -138.72)"/><path class="cls-1" d="M271.47,400.33c-.14.72-.1,1.53-.27,2.25a7.26,7.26,0,0,1-.74,1.6c-.06.12-.06.29-.12.41A7,7,0,0,1,267.5,407c-.72.29-2.14.41-2.55.62-.29-.12-.49,0-.76,0s-.79-.15-1.2-.11a11.45,11.45,0,0,0-1.7-.63,2.8,2.8,0,0,0-1-.66l-.27-.33-.33-.21a7.28,7.28,0,0,0-.8-1.09,10.4,10.4,0,0,1-1.15-3.76,7.39,7.39,0,0,1,.2-2,5.15,5.15,0,0,0,.37-1.17,4.29,4.29,0,0,0,.64-1.26,3.35,3.35,0,0,0,.84-1.07,1.68,1.68,0,0,0,.66-.61c.45-.13.7-.54,1.11-.74a9.05,9.05,0,0,1,3.85-.7c.82,0,1.59.45,2.39.49.47.39,1.07.74,1.52,1.17a7.6,7.6,0,0,1,1.83,3.52,2.81,2.81,0,0,1,.23,1.42Zm-2.55,2.1c0-.23.16-.53.16-.8V400a14,14,0,0,0-1.13-4.36,9.88,9.88,0,0,0-1-1.11c-.39-.29-.9-.33-1.29-.62a2.7,2.7,0,0,0-.56-.08c-.43,0-.88,0-1.31.06a9.52,9.52,0,0,1-1.51.7c-.22.35-.61.52-.82.87-.1.12-.12.29-.21.41s-.22.27-.32.41a9.21,9.21,0,0,1-.46,1.19,9.16,9.16,0,0,0-.33,2.45c0,2.06.39,4.71,2,6.13a5,5,0,0,0,1,.54,2.08,2.08,0,0,0,1.05.31h1.4a4.75,4.75,0,0,0,2.32-1.46,5.39,5.39,0,0,1,.49-.72,12,12,0,0,1,.56-1.88Z" transform="translate(-222.03 -138.72)"/><path class="cls-1" d="M282,407.25s0,0,0,.06-.16.06-.23.1c-.39,0-.8-.1-1.17-.1a7.19,7.19,0,0,0-1.13.1,3.47,3.47,0,0,0-.37-.1c-.27,0-.56.1-.82.1s-.52-.08-.77-.08a8,8,0,0,0-1.19.12l-.1-.08,0-.06s0-.06,0-.08a2.61,2.61,0,0,0,0-.39.33.33,0,0,1,.14-.17l.21-.06.22.08a4.11,4.11,0,0,1,.85-.1l.39-.21.1-.16a3.54,3.54,0,0,0,.1-1c0-.15-.06-.29-.06-.45a4.14,4.14,0,0,1,.08-.44c0-.35-.06-.68-.06-1s.06-.7.06-1l0-2.49v-3.69a4.9,4.9,0,0,0-.16-1.64,3.32,3.32,0,0,0-1.13-.15,17.72,17.72,0,0,0-1.94.13,1.78,1.78,0,0,1-.76.49,6.36,6.36,0,0,0-1.34,1.79.64.64,0,0,0-.28,0l-.33-.16a8,8,0,0,0,.26-1c.15-.56.37-1.13.54-1.67l0,0v-.22l.27-.66.1.16h.08a1.31,1.31,0,0,1,.62.39c.51,0,1,.11,1.52.11,1.13,0,2.25-.11,3.38-.11.41,0,.82.1,1.23.1.17,0,.39-.08.56-.08a16.54,16.54,0,0,1,1.73,0,9.06,9.06,0,0,0,1.48-.08,6.69,6.69,0,0,0,.74-.47.48.48,0,0,0,.16.12l0,.12,0,.05c.44,1.07.58,2.22,1,3.29h-.1l-.08.12a.69.69,0,0,0-.19.1l-.08-.06-.06.06a6.52,6.52,0,0,0-1.61-2.12,2,2,0,0,1-.82-.39l-.56,0c-.18,0-.33-.08-.51-.08a6.56,6.56,0,0,0-1.75.13l-.06.1a2.3,2.3,0,0,0-.1.51c0,.35.06.7.06,1.07,0,.21-.07.41-.07.62s.07.41.07.62c0,.8-.07,1.64-.07,2.45,0,.22.07.41.07.63s-.06.42-.06.64.06.41.06.6l0,1.58c0,.13-.05.25-.05.37a12.73,12.73,0,0,1,0,2.31c.12.29.24.62.59.72a1,1,0,0,0,.48,0l.39.12.22,0a.47.47,0,0,1,.27.12l.06.09v.41Z" transform="translate(-222.03 -138.72)"/><path class="cls-1" d="M300.49,400.33c-.14.72-.1,1.53-.28,2.25a6.8,6.8,0,0,1-.73,1.6c-.06.12-.06.29-.12.41a7,7,0,0,1-2.84,2.45c-.72.29-2.14.41-2.55.62-.29-.12-.49,0-.76,0s-.8-.15-1.21-.11a10.92,10.92,0,0,0-1.69-.63,2.8,2.8,0,0,0-1-.66l-.27-.33-.33-.21a7.28,7.28,0,0,0-.8-1.09,10.21,10.21,0,0,1-1.15-3.76,7.39,7.39,0,0,1,.2-2,5.15,5.15,0,0,0,.37-1.17,4.29,4.29,0,0,0,.64-1.26,3.35,3.35,0,0,0,.84-1.07,1.68,1.68,0,0,0,.66-.61c.44-.13.7-.54,1.11-.74a9.05,9.05,0,0,1,3.85-.7c.81,0,1.59.45,2.39.49.47.39,1.07.74,1.52,1.17a7.6,7.6,0,0,1,1.83,3.52,2.81,2.81,0,0,1,.23,1.42Zm-2.55,2.1c0-.23.15-.53.15-.8V400a14.28,14.28,0,0,0-1.12-4.36,9.11,9.11,0,0,0-1-1.11c-.38-.29-.89-.33-1.28-.62a2.7,2.7,0,0,0-.56-.08c-.43,0-.88,0-1.31.06a9.52,9.52,0,0,1-1.51.7c-.22.35-.61.52-.82.87-.1.12-.12.29-.22.41a3.68,3.68,0,0,1-.31.41,9.21,9.21,0,0,1-.46,1.19,9.16,9.16,0,0,0-.33,2.45c0,2.06.38,4.71,2,6.13a5,5,0,0,0,1,.54,2.08,2.08,0,0,0,1.05.31h1.4a4.75,4.75,0,0,0,2.32-1.46,6.43,6.43,0,0,1,.48-.72,13.18,13.18,0,0,1,.57-1.88Z" transform="translate(-222.03 -138.72)"/><path class="cls-1" d="M314.19,406.59a.43.43,0,0,0,0,.22.25.25,0,0,0-.08.17,13.9,13.9,0,0,1-1.54.51l-.42,0-.37.15-.49-.11a5.53,5.53,0,0,1-1.58.21,3.25,3.25,0,0,1-.38-.08l-.39.1-.2-.1a4.57,4.57,0,0,1-1.92-.31c-1.29.16-2.49-1.44-3.37-1.81a7.66,7.66,0,0,0-.78-1.11,3.46,3.46,0,0,0-.48-1.26c0-.49-.28-.94-.3-1.42,0-.29,0-.59,0-.88,0-.13-.08-.27-.08-.41a5.65,5.65,0,0,1,.39-2,9.43,9.43,0,0,1,.57-1.65,7.11,7.11,0,0,1,5.89-3.56,3.38,3.38,0,0,1,1.46.17l.43-.14.29.24h.41a5.13,5.13,0,0,0,1,.31c.53.35,1.52.7,1.85.95a1,1,0,0,0,.37-.35l.12,0a.35.35,0,0,1,.19.12.22.22,0,0,0,0,.1c0,.25.1.48.1.74s-.08.74-.08,1.13.12.62.12.89l0,.62c0,.08-.1.14-.14.2l-.39.05,0-.25-.21-.37,0-.56c-.41-.39-.51-1.05-.9-1.46a15,15,0,0,0-1.32-1,4.22,4.22,0,0,1-1.3-.59l-.39.1-.41-.25-.45.15-.48-.07a4.28,4.28,0,0,0-2.05.91c-.15.1-.35.14-.48.23a8.14,8.14,0,0,0-1.05,1.31,11.46,11.46,0,0,0-1,3.73V402h-.1c.1,0,.1.58.11.66s.1.29.14.43a5.89,5.89,0,0,0,1.09,2.41,2.5,2.5,0,0,1,1,.61l.22.05,0,0a7.3,7.3,0,0,0,2.17.8c.26,0,.55.14.82.14a2.82,2.82,0,0,0,1.6-.45l.19-.29a1.14,1.14,0,0,0,0-.45,29.15,29.15,0,0,0,0-3.5l-.06-.08a1.62,1.62,0,0,0-1-.17,2.74,2.74,0,0,1-.43-.08l-.35.08-.17-.1h-.49l-.12-.19,0-.18.06-.12v0l.08-.08a3.88,3.88,0,0,1,1.07-.1,8.83,8.83,0,0,1,1.46.06v.08c0-.08.43-.1.51-.1.25,0,.52.08.79.08s.57-.1.84-.1.7.1,1.05.08a1.45,1.45,0,0,1,.41-.06l.19.1.12-.06,0,.06s0,.07,0,.09a.34.34,0,0,1,0,.14,1.06,1.06,0,0,1,0,.25l-.16.12-.25,0-.17-.06a7.32,7.32,0,0,1-1.17.18l-.2.13-.09.16a5.85,5.85,0,0,1-.16,1.34c.25,0,.21,1.34.21,1.38v.64a1.47,1.47,0,0,0,.06.27l.24.32Z" transform="translate(-222.03 -138.72)"/><path class="cls-1" d="M329.54,407.49c-.54,0-1.08,0-1.63,0a8.09,8.09,0,0,1-2.41-.94l-.27-.33c-.59-.17-2.3-2.7-2.47-3.34a2.07,2.07,0,0,0-.59-.59c-.15-.72-.8-.74-1-1a3.31,3.31,0,0,1-.64-.06c0,.51,0,1.05,0,1.58s.08,1.2.08,1.83c0,.13-.08.29-.08.42a3.46,3.46,0,0,0,.21,1.27c.2.11.43.15.64.25a2.3,2.3,0,0,1,1.27.18,1,1,0,0,1,.06.25c0,.06,0,.14,0,.19l-.14.14h-.12l-.07.06a2.61,2.61,0,0,0-.64-.16c-.34,0-.65.12-1,.12a4,4,0,0,1-.41-.1,1.42,1.42,0,0,1-.4.08,17.69,17.69,0,0,1-2.55-.08,2,2,0,0,1-.43.12h-.08l-.12-.06,0-.08-.07,0a1,1,0,0,0,0-.43l.07-.13.3-.08.23,0a2.44,2.44,0,0,1,.54,0c.16-.08.33-.15.49-.25a2.87,2.87,0,0,0,.21-.51,5,5,0,0,1,0-.68c0-.43-.07-.86-.07-1.26s.11-.72.11-1.07-.11-.47-.11-.68c0-.45.09-.9.09-1.35s-.09-.91-.09-1.34v-1.91c0-.38.07-.81.07-1.2,0-.55,0-1.69-.48-2.05-.41,0-.82-.09-1.25-.09,0,0-.08,0-.12,0l-.05-.14c0-.09.05-.21,0-.31l-.06-.13.15-.12a4.32,4.32,0,0,0,.47-.06c.23,0,.49.12.76.1.11,0,.27-.06.39-.06s1.4.1,1.44.12a7.29,7.29,0,0,1,1.48-.16l1.2,0a6,6,0,0,1,1.34.14,2.41,2.41,0,0,0,.68.29,4.43,4.43,0,0,1,1.93,1.34,5.82,5.82,0,0,1,.51,2.28l-.18.37,0,.83a4.08,4.08,0,0,1-2,2,1.77,1.77,0,0,0-.72.31l-.35-.06a2.12,2.12,0,0,0,.62,1,2.91,2.91,0,0,0,.8,1.31l0,.38a6,6,0,0,1,.95,1.33,5.33,5.33,0,0,1,.7.62c.25.21.58.33.84.53a4.29,4.29,0,0,0,2.16.93l.11.14-.05.17Zm-6.63-6.95a2.11,2.11,0,0,0,1.54-1c.17-.41.25-.84.43-1.23a8.93,8.93,0,0,1-.08-1s.1-.29.11-.35a3.33,3.33,0,0,0-2.06-2.61c-.35-.11-.72-.11-1.07-.21l-.54.08-.53-.1a.68.68,0,0,0-.27.29,3.91,3.91,0,0,1,.12,1.07c0,.43-.1.86-.1,1.29a37.61,37.61,0,0,1,0,3.83,6.68,6.68,0,0,1,1.77-.08l.35-.06Z" transform="translate(-222.03 -138.72)"/><path class="cls-1" d="M342.82,406.9a.62.62,0,0,1-.16.45.42.42,0,0,1-.15,0,4.54,4.54,0,0,1-.74-.1,2.3,2.3,0,0,1-.9.08,2.44,2.44,0,0,1-.85-.06,2.65,2.65,0,0,1-.78.1c-.6,0-1.25,0-1.85,0l0-.12-.18,0-.07-.11v-.26l.13-.21c.47-.1,1,0,1.42-.14a.29.29,0,0,1,.16-.11,15,15,0,0,0-1.25-4l-1.18,0h-1.89c-.37,0-.78-.08-1.17-.08l0,.1-.09,0,0,.23c-.28,1.13-.84,2.18-1.09,3.29a.71.71,0,0,0,.27.54,1.48,1.48,0,0,1,.58.1c.1,0,.22-.06.29-.06a3.6,3.6,0,0,1,.8.12l.12.08c0,.05.06.11.08.17a.51.51,0,0,1-.08.29.53.53,0,0,0-.12.1,3,3,0,0,1-.6,0c-.33,0-.64-.08-.95-.1s-.51.06-.76.06-.26-.08-.39-.08c-.45,0-.86.1-1.31.1h-.35l.12-.12,0,0,0-.13V407s0-.1.06-.13a2.84,2.84,0,0,1,.68-.22l.16,0,.11,0a4.42,4.42,0,0,1,.47-.5l.08-.41.25-.22a3.9,3.9,0,0,1,.43-1.3c.29-.7.35-1.54.64-2.22.55-1.28,1-2.57,1.58-3.83.29-.66.41-1.42.64-2.08a7.31,7.31,0,0,0,.54-1.21l-.13-.43c.1-.37.6-.93.58-1.16l.1-.08a1.68,1.68,0,0,1,.43.17l.13,0h.14l.14.3,0,0a9,9,0,0,1,.64,1.87c.33,1,.64,2,.93,2.94.08.29.26.51.35.78a19.41,19.41,0,0,0,1.17,3.42c.06,1,.88,2.08,1,3.13a3.48,3.48,0,0,1,.35.53l.29.23a2.75,2.75,0,0,0,1,.1l.25.18Zm-8.21-8.13c-.08.12-1.21,2.88-1.21,2.88a2.73,2.73,0,0,0,.7,0c.27,0,.57.1.84.1.8,0,1.59-.12,2.37-.14a11,11,0,0,0-.48-1.79c-.08-.19-.24-.41-.3-.6s0-.47-.09-.68a5.93,5.93,0,0,0-.7-1.81l0-.33-.12-.26h-.12a24.24,24.24,0,0,0-.89,2.51Z" transform="translate(-222.03 -138.72)"/><path class="cls-1" d="M349.79,407.31a1.16,1.16,0,0,1-.43.08l-.06,0a10,10,0,0,1-1.54,0c-1.3,0-2.62,0-3.94,0l0,.06-.08,0-.1.06a1.53,1.53,0,0,1-.14-.68.59.59,0,0,1,.2-.18.48.48,0,0,0,.29-.06l.7,0c.24-.13.55-.11.7-.37a2.53,2.53,0,0,0,.08-.66c0-.11-.08-.23-.08-.35a6.5,6.5,0,0,1,.12-.87l-.08-.39c.06-.22.08-2.18.08-2.43,0-.67-.06-1.33-.06-2,0-.45.08-.89.08-1.34,0-.74-.08-1.46-.08-2.2a4.68,4.68,0,0,0-.08-1.19.72.72,0,0,0-.33-.29,6.49,6.49,0,0,0-1.36-.17l-.12-.06a1.31,1.31,0,0,1-.09-.47v-.15c.05,0,.15-.08.17-.14h.14a1.54,1.54,0,0,1,.52.06,16.62,16.62,0,0,1,2,0,3,3,0,0,1,.39,0l0,0a3.78,3.78,0,0,1,.93-.1c.33,0,.64.08.95.08s.63-.1.94-.1c.06,0,.37.08.46.1l.33-.12c.49,0,1,.08,1.42.08s1-.08,1.54-.06l.22.12a2.2,2.2,0,0,1,.19.85c.35.49.37,1.42.66,2,0,0-.06,0,0,0l-.06.12a.83.83,0,0,1-.38.1c-.53-.25-.7-.92-1.21-1.15-.33-.51-.74-.66-1-1a6.71,6.71,0,0,0-2.38-.35c-.33,0-.7,0-1.05,0l-.29.19c-.41.49-.25,2.61-.25,3.25,0,.22-.08.43-.08.64s.08.43.1.65c0,.38-.06.79,0,1.2a13.34,13.34,0,0,0,1.79,0l.6-.29c.14-.15.45-.37.51-.53l0-.11a10.67,10.67,0,0,1,.27-1.32,1.8,1.8,0,0,0,.2-.18.72.72,0,0,0,.35-.08l.13.06,0,.06.06,0,0,.13a8.39,8.39,0,0,0-.08,1.74c0,.77,0,1.57-.08,2.35h-.06a6.48,6.48,0,0,1,.18.9l0,.19c0,.06-.06.12-.08.17l-.08,0-.07.08a.65.65,0,0,0-.39,0,.4.4,0,0,0-.16-.13c0-.06,0-.18,0-.22-.15-.47-.17-1-.29-1.48l-.21-.27-.57-.25a3,3,0,0,1-.43,0c-.37,0-.76-.1-1.14-.1l-.53,0a4.9,4.9,0,0,1,0,.54c0,.22-.08.43-.08.65s.1.44.1.66c0,.5-.06,1-.06,1.5a9.9,9.9,0,0,0,.12,1.88l.07.1c.2.1.41.14.63.23a1.87,1.87,0,0,1,.66.06l.37-.1c.1.06.33.16.39.28v.07a.8.8,0,0,1,.08.37Z" transform="translate(-222.03 -138.72)"/><path class="cls-1" d="M361.12,407.33l-.1.06h-.08l0,0a3.51,3.51,0,0,1-.62.08,3.85,3.85,0,0,1-1.36-.14c-.08,0-3.27.16-3.6.16l-.14,0-.1-.06s0-.08-.05-.06,0-.17,0-.25a.75.75,0,0,0,0-.22l.07-.11.53-.14a1.45,1.45,0,0,0,.41.06l.27,0c.21-.12.45-.15.66-.25l.1-.12,0-.39a2.3,2.3,0,0,1,.1-.35,1.91,1.91,0,0,1-.06-.33c0-.15.08-.31.08-.45a7.37,7.37,0,0,0-.08-1.49l.11-.43a5.56,5.56,0,0,1-.11-1.34c0-.22.08-.47.1-.69.07-1.16,0-2.45,0-3.61,0-.45-.07-.86-.07-1.31a6,6,0,0,0-.1-1.2l-.14-.22a3.5,3.5,0,0,0-1.61-.25l-.12,0-.06-.08a1.1,1.1,0,0,1-.09-.45l.05,0,0-.12h.1l.1-.08,0,.06h.31l.14-.08a10.24,10.24,0,0,0,2.35.12c.21,0,.45.06.66.06.43,0,.9,0,1.38-.06l.31,0,.12-.06a2.82,2.82,0,0,1,.41,0l.13,0a.71.71,0,0,1,0,.2,2.29,2.29,0,0,1,.12.37.4.4,0,0,1-.16.13,3.6,3.6,0,0,0-1.77.33c-.37.39-.15,1-.15,1.42s-.08,1-.08,1.5c0,.23-.08.49-.08.74,0,.88.12,1.81.12,2.7,0,.45-.12.9-.12,1.35,0,1,.12,1.94.12,2.95a6.89,6.89,0,0,0,.06,1.11l.1.14a2.32,2.32,0,0,0,.38.21l.22,0c.37,0,.74.1,1.13.1a.43.43,0,0,1,.15.18.86.86,0,0,1,0,.23.45.45,0,0,1-.06.27Zm-3.27-15.62-.94.06c1.27-1.11,2.1-2.75,3.6-3.54.57.15.59.37.78.83a4.28,4.28,0,0,1-.19.43.87.87,0,0,0-.37.41c-.55.39-1.23.62-1.77,1-.26.2-.37.43-.69.59Z" transform="translate(-222.03 -138.72)"/><path class="cls-1" d="M375.11,406.9a.67.67,0,0,1-.16.45.47.47,0,0,1-.16,0,4.57,4.57,0,0,1-.73-.1,2.32,2.32,0,0,1-.9.08,2.52,2.52,0,0,1-.86-.06,2.55,2.55,0,0,1-.77.1c-.61,0-1.25,0-1.85,0l0-.12-.18,0a.38.38,0,0,1-.08-.11v-.26l.14-.21c.47-.1,1,0,1.42-.14a.29.29,0,0,1,.16-.11,15,15,0,0,0-1.25-4l-1.19,0h-1.88c-.37,0-.78-.08-1.17-.08l0,.1-.1,0,0,.23c-.27,1.13-.83,2.18-1.09,3.29a.72.72,0,0,0,.28.54,1.48,1.48,0,0,1,.58.1c.1,0,.21-.06.29-.06a3.69,3.69,0,0,1,.8.12l.12.08c0,.05.05.11.07.17a.59.59,0,0,1-.07.29.53.53,0,0,0-.12.1,3,3,0,0,1-.6,0c-.33,0-.65-.08-1-.1s-.5.06-.76.06-.25-.08-.38-.08c-.45,0-.86.1-1.31.1h-.35l.12-.12,0,0,0-.13V407s0-.1.06-.13a2.7,2.7,0,0,1,.68-.22l.16,0,.11,0a3.67,3.67,0,0,1,.47-.5l.08-.41.25-.22a3.9,3.9,0,0,1,.43-1.3c.29-.7.35-1.54.64-2.22.54-1.28,1-2.57,1.58-3.83.29-.66.4-1.42.64-2.08a8.24,8.24,0,0,0,.54-1.21l-.13-.43c.09-.37.6-.93.58-1.16l.1-.08a1.84,1.84,0,0,1,.43.17l.13,0H369l.13.3,0,0a8.45,8.45,0,0,1,.65,1.87c.33,1,.64,2,.93,2.94.08.29.25.51.35.78a19.41,19.41,0,0,0,1.17,3.42c.06,1,.87,2.08,1,3.13a3.48,3.48,0,0,1,.35.53l.29.23a2.72,2.72,0,0,0,1,.1l.26.18Zm-8.21-8.13c-.08.12-1.21,2.88-1.21,2.88a2.73,2.73,0,0,0,.7,0c.27,0,.56.1.84.1.79,0,1.59-.12,2.37-.14a11,11,0,0,0-.49-1.79c-.07-.19-.23-.41-.29-.6s0-.47-.1-.68a5.68,5.68,0,0,0-.7-1.81l0-.33-.11-.26h-.12a24.24,24.24,0,0,0-.89,2.51Z" transform="translate(-222.03 -138.72)"/><path class="cls-1" d="M387.06,407.31a1.16,1.16,0,0,1-.43.08l-.06,0a10,10,0,0,1-1.54,0c-1.3,0-2.62,0-3.94,0l0,.06-.08,0-.1.06a1.53,1.53,0,0,1-.14-.68.59.59,0,0,1,.2-.18.48.48,0,0,0,.29-.06l.7,0c.24-.13.55-.11.7-.37a2.53,2.53,0,0,0,.08-.66c0-.11-.08-.23-.08-.35a6.5,6.5,0,0,1,.12-.87l-.08-.39c.06-.22.08-2.18.08-2.43,0-.67-.06-1.33-.06-2,0-.45.08-.89.08-1.34,0-.74-.08-1.46-.08-2.2a4.68,4.68,0,0,0-.08-1.19.72.72,0,0,0-.33-.29,6.49,6.49,0,0,0-1.36-.17l-.12-.06a1.31,1.31,0,0,1-.09-.47v-.15c.05,0,.15-.08.17-.14H381a1.54,1.54,0,0,1,.52.06,16.62,16.62,0,0,1,2,0,3,3,0,0,1,.39,0l0,0a3.78,3.78,0,0,1,.93-.1c.33,0,.64.08,1,.08s.63-.1.94-.1c.06,0,.37.08.46.1l.33-.12c.49,0,1,.08,1.42.08s1-.08,1.54-.06l.22.12a2.2,2.2,0,0,1,.19.85c.35.49.37,1.42.66,2,0,0-.06,0,0,0l-.06.12a.83.83,0,0,1-.38.1c-.53-.25-.7-.92-1.21-1.15-.33-.51-.74-.66-1-1a6.71,6.71,0,0,0-2.38-.35c-.33,0-.7,0-1.05,0l-.29.19c-.41.49-.25,2.61-.25,3.25,0,.22-.08.43-.08.64s.08.43.1.65c0,.38-.06.79,0,1.2a13.34,13.34,0,0,0,1.79,0l.6-.29c.14-.15.45-.37.51-.53l0-.11a10.67,10.67,0,0,1,.27-1.32,1.8,1.8,0,0,0,.2-.18.72.72,0,0,0,.35-.08l.13.06,0,.06.06,0,0,.13a8.39,8.39,0,0,0-.08,1.74c0,.77,0,1.57-.08,2.35h-.06a6.48,6.48,0,0,1,.18.9l0,.19c0,.06-.06.12-.08.17l-.08,0-.07.08a.65.65,0,0,0-.39,0,.4.4,0,0,0-.16-.13c0-.06,0-.18,0-.22-.15-.47-.17-1-.29-1.48l-.21-.27-.57-.25a3,3,0,0,1-.43,0c-.37,0-.76-.1-1.14-.1l-.53,0a4.9,4.9,0,0,1,0,.54c0,.22-.08.43-.08.65s.1.44.1.66c0,.5-.06,1-.06,1.5a9.9,9.9,0,0,0,.12,1.88l.07.1c.2.1.41.14.63.23a1.87,1.87,0,0,1,.66.06l.37-.1c.1.06.33.16.39.28v.07a.8.8,0,0,1,.08.37Z" transform="translate(-222.03 -138.72)"/><path class="cls-1" d="M403.72,406.9a.67.67,0,0,1-.16.45.47.47,0,0,1-.16,0,4.57,4.57,0,0,1-.73-.1,2.32,2.32,0,0,1-.9.08,2.52,2.52,0,0,1-.86-.06,2.55,2.55,0,0,1-.77.1c-.61,0-1.25,0-1.85,0l0-.12-.18,0a.38.38,0,0,1-.08-.11v-.26c0-.07.1-.15.14-.21.47-.1,1,0,1.42-.14a.29.29,0,0,1,.16-.11,15,15,0,0,0-1.25-4l-1.19,0h-1.88c-.37,0-.78-.08-1.17-.08l0,.1-.1,0,0,.23c-.27,1.13-.83,2.18-1.09,3.29a.72.72,0,0,0,.28.54,1.51,1.51,0,0,1,.58.1c.1,0,.21-.06.29-.06a3.69,3.69,0,0,1,.8.12l.12.08c0,.05.05.11.07.17a.59.59,0,0,1-.07.29.53.53,0,0,0-.12.1,3,3,0,0,1-.6,0c-.33,0-.65-.08-1-.1s-.5.06-.76.06-.25-.08-.39-.08c-.44,0-.85.1-1.3.1h-.35l.12-.12,0,0,0-.13V407s0-.1.06-.13a2.7,2.7,0,0,1,.68-.22l.16,0,.11,0a3.67,3.67,0,0,1,.47-.5l.08-.41.25-.22a3.9,3.9,0,0,1,.43-1.3c.29-.7.35-1.54.64-2.22.54-1.28,1-2.57,1.58-3.83.29-.66.4-1.42.64-2.08a8.24,8.24,0,0,0,.54-1.21l-.13-.43c.09-.37.6-.93.58-1.16l.1-.08a1.6,1.6,0,0,1,.42.17l.14,0h.14l.13.3,0,0a8.45,8.45,0,0,1,.65,1.87c.33,1,.64,2,.93,2.94.08.29.25.51.35.78a19.41,19.41,0,0,0,1.17,3.42c.06,1,.87,2.08,1,3.13a3.48,3.48,0,0,1,.35.53l.29.23a2.72,2.72,0,0,0,1,.1l.26.18Zm-8.21-8.13c-.08.12-1.21,2.88-1.21,2.88a2.73,2.73,0,0,0,.7,0c.27,0,.56.1.84.1.79,0,1.59-.12,2.37-.14a11,11,0,0,0-.49-1.79c-.07-.19-.23-.41-.29-.6s0-.47-.1-.68a5.68,5.68,0,0,0-.7-1.81l0-.33-.11-.26h-.12a24.24,24.24,0,0,0-.89,2.51Z" transform="translate(-222.03 -138.72)"/><path class="cls-1" d="M421,407.41l0,0a5.65,5.65,0,0,1-1.15,0c-.43,0-.84.08-1.26.08s-1.07-.1-1.6-.1c-.19,0-.41.1-.62.1a6.09,6.09,0,0,1-.88-.06l0,0-.08-.06h-.19l.06-.15,0-.18a.3.3,0,0,1,.12-.17,9.94,9.94,0,0,0,1.88-.37l.08-.14a1.72,1.72,0,0,0,.1-.64,6.25,6.25,0,0,1-.08-1.36l-.12-.45c0-.31.06-.6.06-.92,0-.07-.11-.33-.11-.44a7.41,7.41,0,0,1,0-.94c0-.29-.07-.6-.07-.89,0-.45.07-.92.07-1.36,0-.92-.11-1.83-.11-2.75,0-.31-.06-.62-.08-.91l0-.49v0l0,0c-.06.12-.11.24-.17.37-.12.29-.28.55-.39.84-.06.14-.06.31-.12.45a10.68,10.68,0,0,0-.56,1.18c0,.16,0,.35-.08.51-.16.54-.49,1.05-.68,1.59l0,.08a6.86,6.86,0,0,1-.35.78c-.29.66-.53,1.46-.84,2.16-.1.27-.1.54-.19.82s-.28.5-.37.79-.16.57-.28.86a11.08,11.08,0,0,0-.62,1.87.43.43,0,0,0-.15.09l-.1,0-.14,0-.11-.09c0-.06-.53-1.25-.61-1.4-.54-1.13-.95-2.36-1.48-3.52-.44-1-.87-1.89-1.28-2.88a25.06,25.06,0,0,0-1.27-3.1v.08c0,.72-.13,1.38-.13,2.12,0,.27-.08.53-.1.8-.06.58,0,1.22,0,1.81,0,.33-.14.66-.14.95s.12.66.12,1-.08.32-.08.47c0,.7.12,1.42.06,2.12l.14.41.15.2a1.63,1.63,0,0,0,.94.21,7.47,7.47,0,0,1,.74.15h.06c0,.16,0,.32,0,.45l0,.16h-.2l-.1,0-.58-.14c-.08,0-.41.1-.47.1s-.35-.08-.52-.08c-.45,0-.92.1-1.32.1a4.32,4.32,0,0,1-.73-.06,2.5,2.5,0,0,1-.38.06l-.06,0-.18-.2a1.38,1.38,0,0,1-.08-.27.36.36,0,0,1,0-.2l.12,0a9.67,9.67,0,0,1,1.07-.1l.29-.1a3.28,3.28,0,0,0,.29-1.52,4.06,4.06,0,0,1,.1-1.26,2.13,2.13,0,0,1-.1-.49c0-.29.06-.6.06-.91,0-.62.08-1.27.08-1.89,0-.13-.08-.29-.08-.43a10.68,10.68,0,0,0,.1-2.31,2,2,0,0,0,.12-1.17,9.81,9.81,0,0,1,.13-1.34,1.74,1.74,0,0,1-.17-.45.83.83,0,0,1-.26-.37.66.66,0,0,1-.13-.08,8.43,8.43,0,0,0-1.13,0,1.15,1.15,0,0,1-.7-.13v-.12a1.22,1.22,0,0,0,0-.27.49.49,0,0,0,.08-.18h.09l.08-.09a5.05,5.05,0,0,0,.78.11,5.72,5.72,0,0,0,.57-.11,6.25,6.25,0,0,1,.87,0,5.33,5.33,0,0,0,1.13-.18l.27.08h0l.12,0h.13c.14.13.22.7.3.91.21.53,1.51,3.72,1.51,4.05s1.79,4.16,1.81,4.36l.35.33a3.79,3.79,0,0,0,.35,1,8.46,8.46,0,0,0,.61-1c0-.16.85-3,.93-3.12a3.1,3.1,0,0,0,.56-1.36,8.32,8.32,0,0,0,.84-2.18c.08-.07,1.13-2.84,1.13-2.88a.29.29,0,0,1,.1-.09l.09.06.1-.12.1,0c.23,0,.46.1.68.1s.31-.06.45-.06c.31,0,.62.1.89.1.55,0,1.15-.1,1.69-.14,0,.06.14,0,.2,0l.06.21a1.23,1.23,0,0,1-.06.39.63.63,0,0,1-.22.18l-.07-.1-.28.1-.35-.06c-.23.15-.77-.06-1,.37l0,.21c0,.29-.11.6-.11.9a4.92,4.92,0,0,0,.11,1.38c0,.08-.09.43-.09.48,0,.67.07,1.33.07,2s.08,1.11.08,1.69,0,1,0,1.56l0,0a2.27,2.27,0,0,1,0,1,4,4,0,0,0,.17.91c0,.18-.07.39-.07.55a8,8,0,0,0,.09.87l.16.22c.6.5,1.48.17,1.79.39,0,.06.06.09.08.15a.71.71,0,0,1-.2.45Z" transform="translate(-222.03 -138.72)"/><path class="cls-1" d="M428.18,407.41a1.49,1.49,0,0,1-.72-.1l-.58.08-.43-.1c-.29.08-2.24.1-2.65.1-.25,0-.54-.1-.81-.1a3.48,3.48,0,0,0-.9.12v0l-.08,0v0l-.09-.06a.82.82,0,0,0,.06-.39.45.45,0,0,1,.13-.15l.2-.06.27,0,.43-.08.33,0a1.85,1.85,0,0,0,.8-.41,2.37,2.37,0,0,0,.15-1c0-.14-.08-.29-.08-.45,0-.62.08-1.26.08-1.9,0-1.75.08-3.51.08-5.28,0-.11.08-.23.08-.35,0-.29-.08-.56-.08-.83a3.12,3.12,0,0,1,.08-1,2.78,2.78,0,0,1-.12-.71c-.39-.43-1.6-.32-2.14-.47a.47.47,0,0,1,0-.33l0-.1,0-.08v-.1l.12-.09.15,0c.39,0,.82-.06,1.23,0,.1,0,.37.11.45.11h1.59c.91,0,1.83-.15,2.74-.15a.54.54,0,0,1,.22.1l.06.11a1.17,1.17,0,0,1-.06.45l-.16.08-.11,0a6.12,6.12,0,0,0-1.44.15,2.82,2.82,0,0,1-.41.33,6.8,6.8,0,0,0-.12,1.68c0,.33-.06.66-.06,1,0,.68-.11,1.38-.11,2.08s.07,1.34.07,2-.13,1.14-.13,1.69c0,.91.06,1.79.06,2.68,0,.14,0,.25,0,.39l.16.14.45.17c.1,0,.81.08,1.07.08a2.58,2.58,0,0,1,.37.06l0,.06.13,0,0,.27-.12.14v.09Z" transform="translate(-222.03 -138.72)"/><path class="cls-1" d="M440.34,407.39l-.13,0a1.77,1.77,0,0,1-.31.08c-.84,0-1.7-.12-2.51-.12-.28,0-.59.1-.9.1-.11,0-.29-.1-.43-.1s-.58.1-.87.1-.57-.12-.88-.12-.87.1-1.32.1c-.14,0-.27-.08-.43-.08a13.84,13.84,0,0,1-2.41,0,1.64,1.64,0,0,1-.45.1h-.1l-.09-.1h-.18l.16-.15,0-.12a1.42,1.42,0,0,1,.06-.31l.09-.08h.16l.18-.08c.23,0,.46,0,.7,0s.29-.1.48-.06a1,1,0,0,0,.24-.31,38.92,38.92,0,0,0,.07-4.74c0-1.54.06-3.1.06-4.66,0-.6-.12-1.22-.06-1.84a2.13,2.13,0,0,0-.21-.49,2,2,0,0,0-1.52-.23.64.64,0,0,1-.29-.18V394c0-.14.08-.14,0-.32a.43.43,0,0,1,.13-.21,1.36,1.36,0,0,0,.57.06,2.09,2.09,0,0,1,.35,0v.08c0-.14.7-.06.74-.06l3.27,0c.15,0,.33-.08.46,0l.39-.08.14.06v.06l.12.06,0,.11a.61.61,0,0,1,0,.27l0,.1a.82.82,0,0,1-.26.16c-.27,0-.54,0-.81,0a2.15,2.15,0,0,0-.57.13l-.19.18a2.17,2.17,0,0,0,0,.51,3.81,3.81,0,0,1-.14.93,7.3,7.3,0,0,1,.08.93c0,.43-.1.86-.1,1.29a6.84,6.84,0,0,0,.14,2,4.1,4.1,0,0,0-.14.66c0,.22.08.45.1.68,0,.43-.06.9-.06,1.35,0,.25.1.54.1.83s-.12.43-.12.62.12.55.12.8c0,.43-.08.92-.12,1.36a.72.72,0,0,1,.33.18l1.11.27a10.28,10.28,0,0,1,1.11,0c.62,0,1.25-.13,1.87-.13.21,0,.43-.3.56-.24.2-.21.57-.27.76-.46a6.26,6.26,0,0,1,.6-.67,16.09,16.09,0,0,1,.92-1.49l0-.24.07-.08a1.15,1.15,0,0,1,.32,0l.17,0,.1.12,0,.12-.08.1a16.84,16.84,0,0,0-.62,2.25l-.14.22a1.84,1.84,0,0,1-.21.74Z" transform="translate(-222.03 -138.72)"/><path class="cls-1" d="M448.48,407.41a1.49,1.49,0,0,1-.72-.1l-.58.08-.43-.1c-.29.08-2.24.1-2.65.1-.25,0-.54-.1-.81-.1a3.48,3.48,0,0,0-.9.12v0l-.08,0v0l-.09-.06a1,1,0,0,0,0-.39.66.66,0,0,1,.14-.15l.2-.06.27,0,.43-.08.33,0a1.77,1.77,0,0,0,.79-.41,2.24,2.24,0,0,0,.16-1c0-.14-.08-.29-.08-.45,0-.62.08-1.26.08-1.9,0-1.75.08-3.51.08-5.28,0-.11.08-.23.08-.35,0-.29-.08-.56-.08-.83a3.12,3.12,0,0,1,.08-1,2.78,2.78,0,0,1-.12-.71c-.39-.43-1.6-.32-2.14-.47a.47.47,0,0,1,0-.33l0-.1,0-.08v-.1l.12-.09.15,0c.39,0,.82-.06,1.23,0,.09,0,.37.11.44.11H446c.91,0,1.83-.15,2.74-.15a.54.54,0,0,1,.22.1l.05.11a1.38,1.38,0,0,1-.05.45l-.16.08-.12,0a6.23,6.23,0,0,0-1.44.15,2.33,2.33,0,0,1-.4.33,6.8,6.8,0,0,0-.12,1.68c0,.33-.06.66-.06,1,0,.68-.12,1.38-.12,2.08s.08,1.34.08,2-.13,1.14-.13,1.69c0,.91.05,1.79.05,2.68,0,.14,0,.25,0,.39l.16.14.45.17c.09,0,.81.08,1.07.08a2.58,2.58,0,0,1,.37.06l0,.06.13,0,0,.27-.12.14v.09Z" transform="translate(-222.03 -138.72)"/><path class="cls-1" d="M462.69,406.9a.62.62,0,0,1-.16.45.47.47,0,0,1-.16,0,4.86,4.86,0,0,1-.74-.1,2.25,2.25,0,0,1-.89.08,2.52,2.52,0,0,1-.86-.06,2.55,2.55,0,0,1-.77.1c-.61,0-1.25,0-1.85,0l0-.12-.18,0a.38.38,0,0,1-.08-.11v-.26l.14-.21c.47-.1,1,0,1.42-.14a.29.29,0,0,1,.16-.11,15,15,0,0,0-1.25-4l-1.19,0h-1.88c-.37,0-.78-.08-1.17-.08l0,.1-.1,0,0,.23c-.27,1.13-.83,2.18-1.09,3.29a.72.72,0,0,0,.28.54,1.51,1.51,0,0,1,.58.1c.1,0,.21-.06.29-.06a3.69,3.69,0,0,1,.8.12l.12.08c0,.05.05.11.07.17a.59.59,0,0,1-.07.29.53.53,0,0,0-.12.1,3,3,0,0,1-.6,0c-.34,0-.65-.08-1-.1s-.5.06-.76.06-.25-.08-.38-.08c-.45,0-.86.1-1.31.1h-.35l.12-.12,0,0,0-.13V407s0-.1.06-.13a2.7,2.7,0,0,1,.68-.22l.15,0,.12,0a3.67,3.67,0,0,1,.47-.5l.08-.41.25-.22a3.9,3.9,0,0,1,.43-1.3c.29-.7.35-1.54.64-2.22.54-1.28,1-2.57,1.57-3.83.3-.66.41-1.42.65-2.08a9.46,9.46,0,0,0,.54-1.21l-.13-.43c.09-.37.6-.93.58-1.16l.1-.08a1.84,1.84,0,0,1,.43.17l.13,0h.14l.13.3,0,0a8.45,8.45,0,0,1,.65,1.87c.33,1,.64,2,.93,2.94.08.29.25.51.35.78a19.41,19.41,0,0,0,1.17,3.42c.06,1,.87,2.08,1,3.13a3.48,3.48,0,0,1,.35.53l.29.23a2.7,2.7,0,0,0,1,.1l.26.18Zm-8.21-8.13c-.08.12-1.21,2.88-1.21,2.88a2.73,2.73,0,0,0,.7,0c.27,0,.56.1.84.1.79,0,1.59-.12,2.37-.14a11,11,0,0,0-.49-1.79c-.07-.19-.23-.41-.29-.6s0-.47-.1-.68a5.68,5.68,0,0,0-.7-1.81l0-.33-.11-.26h-.12a24.24,24.24,0,0,0-.89,2.51Z" transform="translate(-222.03 -138.72)"/><path class="cls-1" d="M476.19,407.49c-.54,0-1.09,0-1.63,0a8,8,0,0,1-2.41-.94l-.28-.33c-.58-.17-2.29-2.7-2.47-3.34a2,2,0,0,0-.58-.59c-.16-.72-.8-.74-1-1a3.42,3.42,0,0,1-.65-.06c0,.51,0,1.05,0,1.58s.07,1.2.07,1.83c0,.13-.07.29-.07.42a3.26,3.26,0,0,0,.21,1.27c.19.11.43.15.64.25a2.3,2.3,0,0,1,1.27.18,1,1,0,0,1,.05.25c0,.06,0,.14,0,.19l-.13.14h-.12l-.08.06a2.4,2.4,0,0,0-.64-.16c-.33,0-.64.12-1,.12a4,4,0,0,1-.41-.1,1.49,1.49,0,0,1-.41.08,17.78,17.78,0,0,1-2.55-.08,1.93,1.93,0,0,1-.42.12h-.08l-.12-.06,0-.08-.08,0a.79.79,0,0,0,0-.43l.08-.13.29-.08.24,0a2.44,2.44,0,0,1,.54,0c.16-.08.33-.15.49-.25s.15-.33.21-.51a3.77,3.77,0,0,1,0-.68c0-.43-.08-.86-.08-1.26s.12-.72.12-1.07-.12-.47-.12-.68c0-.45.1-.9.1-1.35s-.1-.91-.1-1.34v-1.91c0-.38.08-.81.08-1.2,0-.55,0-1.69-.49-2.05-.41,0-.81-.09-1.24-.09,0,0-.08,0-.12,0l-.06-.14c0-.09.06-.21,0-.31l-.06-.13.16-.12a4.32,4.32,0,0,0,.47-.06,7.42,7.42,0,0,0,.76.1c.11,0,.27-.06.38-.06s1.41.1,1.44.12a7.29,7.29,0,0,1,1.48-.16l1.21,0a6.1,6.1,0,0,1,1.34.14,2.41,2.41,0,0,0,.68.29,4.43,4.43,0,0,1,1.93,1.34,5.81,5.81,0,0,1,.5,2.28l-.17.37,0,.83a4.12,4.12,0,0,1-2,2,1.72,1.72,0,0,0-.72.31l-.35-.06a2.05,2.05,0,0,0,.62,1,2.89,2.89,0,0,0,.79,1.31l0,.38a5.85,5.85,0,0,0,1.66,1.95c.25.21.58.33.83.53a4.32,4.32,0,0,0,2.16.93l.12.14-.06.17Zm-6.63-6.95a2.07,2.07,0,0,0,1.53-1c.18-.41.26-.84.43-1.23a8.91,8.91,0,0,1-.07-1,3.42,3.42,0,0,1,.11-.35,3.33,3.33,0,0,0-2.06-2.61c-.35-.11-.72-.11-1.07-.21l-.55.08-.52-.1a.62.62,0,0,0-.27.29,4.32,4.32,0,0,1,.11,1.07c0,.43-.09.86-.09,1.29a37.61,37.61,0,0,1,0,3.83,6.67,6.67,0,0,1,1.77-.08l.35-.06Z" transform="translate(-222.03 -138.72)"/><path class="cls-1" d="M493.28,404.3a.63.63,0,0,1,0,.27c-.47.52-.72,2.53-1.15,2.8-.7,0-1.4-.06-2.08-.06-.41,0-.82.08-1.23.08-.6,0-1.22-.08-1.82-.08-.82,0-1.66.1-2.47.1-.06,0-.47-.1-.55-.12-.49.12-2,0-2.28.12a1.64,1.64,0,0,0-.33-.14l.16-.09a1.07,1.07,0,0,1,0-.35l.14-.16.31,0c.29,0,.58-.14.89-.12a.86.86,0,0,1,.41-.19c.18-.29.08-.8.2-1.15a3.25,3.25,0,0,1-.08-.43c0-.48.11-1,.11-1.46,0-.13-.05-.27-.05-.41s.05-.42.05-.66-.07-.44-.07-.66.07-.43.07-.66-.07-.43-.07-.64c0-.45.06-.88.06-1.32,0-.65-.08-1.29-.08-1.93,0-.16.08-.31.08-.47a4.59,4.59,0,0,0-.26-1.87c-.23-.19-.45-.15-.74-.15a2.94,2.94,0,0,1-.7-.12l-.15.06-.18-.14v-.11a.86.86,0,0,1,0-.33l.06,0v-.1h.1l.05-.12.08.08h1.11l1.34,0,.31,0v.1c0-.2,1.35-.06,1.58-.06.84,0,1.69-.12,2.55-.12.29,0,.62.08.91.1l.47-.14.47.08.23-.08a.84.84,0,0,0,.37.14.59.59,0,0,0,.1.33l.19.16a11,11,0,0,0,.66,2.25l0,.06,0,.12-.11.11a2.72,2.72,0,0,0-.39,0,6.59,6.59,0,0,1-1-1.18l-.28-.2-.21-.29a4.16,4.16,0,0,1-.62-.41l-.31-.1-.28-.21-.39,0-.23-.12c-.39,0-.82-.08-1.21-.08s-.85.06-1.28.08c-.56.9-.33,1.79-.33,2.8,0,.82-.1,1.64-.1,2.48,0,.25,0,.52,0,.77a12.76,12.76,0,0,1,1.85,0l.56-.17,0-.14.24-.11.21-.26c.2-.56.12-1.16.35-1.71a.05.05,0,0,0,.08,0h.12c.09,0,.19.06.31,0a2.07,2.07,0,0,1,.13.72c0,.76-.07,1.52-.07,2.28,0,.31.13,2.16.11,2.22l0,.07,0,.1a.22.22,0,0,1-.17.1l-.14-.06a.33.33,0,0,1-.23,0,.28.28,0,0,1,0-.12l-.06-.05c-.1-.41-.1-.82-.19-1.23a2.38,2.38,0,0,1-.34-.6,2.31,2.31,0,0,0-1.49-.3,8.7,8.7,0,0,1-1.25,0l0,.34c0,.4.08.81.08,1.22l0,1.19c0,.21,0,.41,0,.62l-.08,0c.16,0,.1,1.21.1,1.23s.08.37.08.54l.25.27c.14,0,1.27.24,1.68.24.77,0,3.21,0,3.75-.45a3.49,3.49,0,0,1,.8-.91c.13-.43.5-.7.7-1.11h0l.08-.06a.72.72,0,0,1,.36-.06l.1,0Z" transform="translate(-222.03 -138.72)"/><path class="cls-1" d="M505.13,407.41a1.43,1.43,0,0,1-.71-.1l-.59.08-.43-.1c-.29.08-2.23.1-2.64.1-.26,0-.55-.1-.82-.1a3.41,3.41,0,0,0-.89.12v0l-.08,0v0l-.1-.06a.82.82,0,0,0,.06-.39.66.66,0,0,1,.14-.15l.19-.06.27,0,.43-.08.33,0a1.8,1.8,0,0,0,.8-.41,2.37,2.37,0,0,0,.15-1c0-.14-.07-.29-.07-.45,0-.62.07-1.26.07-1.9,0-1.75.08-3.51.08-5.28,0-.11.08-.23.08-.35,0-.29-.08-.56-.08-.83a3.12,3.12,0,0,1,.08-1,2.78,2.78,0,0,1-.12-.71c-.39-.43-1.59-.32-2.14-.47a.47.47,0,0,1,0-.33l0-.1,0-.08v-.1l.12-.09.16,0c.38,0,.81-.06,1.22,0,.1,0,.37.11.45.11h1.59c.92,0,1.83-.15,2.75-.15a.5.5,0,0,1,.21.1l.06.11a1.17,1.17,0,0,1-.06.45.68.68,0,0,0-.15.08l-.12,0a6.17,6.17,0,0,0-1.44.15,2.37,2.37,0,0,1-.41.33,6.8,6.8,0,0,0-.12,1.68c0,.33-.06.66-.06,1,0,.68-.11,1.38-.11,2.08s.08,1.34.08,2-.14,1.14-.14,1.69c0,.91.06,1.79.06,2.68,0,.14,0,.25,0,.39l.15.14.45.17c.1,0,.82.08,1.07.08a2.38,2.38,0,0,1,.37.06l0,.06.14,0,0,.27-.11.14v.09Z" transform="translate(-222.03 -138.72)"/><path class="cls-1" d="M519.3,407.51a7.23,7.23,0,0,1-1.71-1.91,15.91,15.91,0,0,0-1.11-1.21,8,8,0,0,1-.51-.68,30.78,30.78,0,0,0-2.33-2.57,28.59,28.59,0,0,0-4.05-4.72,16.19,16.19,0,0,0,0,2.53c0,.48-.07.93-.07,1.44,0,.21.07.44.07.66s-.07.29-.07.43.09.56.09.83l0,.88a6.17,6.17,0,0,0-.05.87h-.08c.17,0,.13.72.13.82s.14.8,0,.93a4.77,4.77,0,0,0,.2.57l.85.29c.26,0,.51,0,.74,0s.28,0,.41,0l.12.1a.83.83,0,0,1,0,.44l-.1.08v0a1.38,1.38,0,0,1-.64,0l-.2.06a4.48,4.48,0,0,1-1.16-.12c-.08,0-.57.14-.63.14s-1.84-.1-1.86-.12a2,2,0,0,0-.41.12l-.16,0a.6.6,0,0,1-.11-.12l0-.09,0-.28s0,0,0,0a.57.57,0,0,1,.27-.21l.41,0,.17-.06c.45.08.74-.17,1.17-.23l.15-.16c0-.72.12-1.48.12-2.2,0-.44-.14-.91-.14-1.34a16.21,16.21,0,0,1,.18-3.09l-.16-.88.1-.43-.08-.44a4.3,4.3,0,0,0,.08-.45,13.84,13.84,0,0,0-.19-1.89,5.9,5.9,0,0,0-2.18-1.13l-.06-.06-.12,0c0-.05,0-.13-.06-.17V394l.07-.24.14-.08h.29c.64,0,1.32.18,1.95.18a5.29,5.29,0,0,0,1.38-.1c.43.2.89.94,1.18,1.3l0,.24.1.17h0c.14,0,.49.55.54.63a9,9,0,0,1,1,1c.08.12.11.29.19.41a8.71,8.71,0,0,0,1.11,1.24c.47.53.78,1.21,1.27,1.71a26.68,26.68,0,0,1,3,3.27l.37.22a1.79,1.79,0,0,0,.35.62,2.9,2.9,0,0,1,.14-.7,4.5,4.5,0,0,1-.08-.51c0-.15.1-.31.1-.44,0-.59,0-1.17,0-1.74a3.48,3.48,0,0,0-.1-.44c-.06-.7-.06-1.4-.06-2.1,0-.26-.06-.53-.06-.8s.06-.27.06-.41c0-1.17.08-2.76-1.44-2.86l-.15-.1a2.1,2.1,0,0,1-.61,0l-.13.08,0-.16,0,0c0-.05,0-.13,0-.19a.78.78,0,0,1,0-.21.31.31,0,0,1,.12-.16c.21,0,.43,0,.64,0,.54,0,1.11.14,1.63.14.14,0,.3-.08.43,0a3.3,3.3,0,0,1,.88-.1,2.26,2.26,0,0,1,.83.12c.1,0,.59-.14.66-.14a.53.53,0,0,1,.12.1l.06.08V394a5,5,0,0,1-.16.51l-.48,0a2,2,0,0,0-.57.33,1.72,1.72,0,0,0-.54.18,3.88,3.88,0,0,0-.45,1.71l-.1,0a0,0,0,0,1,0,0,.87.87,0,0,1,0,.19,13.2,13.2,0,0,1-.08,2.43s0,.1,0,.12c0,.29-.1.6-.1.92,0,.54.19,1.16.19,1.75s-.19,1.07-.19,1.63c0,.14.06.27.06.43s0,.27,0,.43l0,.37v0h0a9.26,9.26,0,0,1,.08,1.28,2.8,2.8,0,0,1-.12,1.17l0,0,0,.05h-.13v.32Z" transform="translate(-222.03 -138.72)"/><path class="cls-1" d="M529.05,407.31a1.11,1.11,0,0,1-.42.08l-.06,0a10,10,0,0,1-1.54,0c-1.3,0-2.63,0-3.95,0l0,.06-.08,0-.09.06a1.53,1.53,0,0,1-.14-.68.66.66,0,0,1,.19-.18.51.51,0,0,0,.3-.06l.7,0c.23-.13.54-.11.7-.37a2.53,2.53,0,0,0,.08-.66c0-.11-.08-.23-.08-.35a8.62,8.62,0,0,1,.11-.87l-.07-.39c.05-.22.07-2.18.07-2.43,0-.67-.05-1.33-.05-2,0-.45.07-.89.07-1.34,0-.74-.07-1.46-.07-2.2a4.68,4.68,0,0,0-.08-1.19.77.77,0,0,0-.33-.29,6.57,6.57,0,0,0-1.36-.17l-.12-.06a1.32,1.32,0,0,1-.1-.47v-.15c.06,0,.16-.08.18-.14H523a1.6,1.6,0,0,1,.53.06,16.46,16.46,0,0,1,2,0,2.72,2.72,0,0,1,.39,0l0,0a3.81,3.81,0,0,1,.94-.1c.33,0,.64.08.95.08s.62-.1.93-.1c.06,0,.37.08.47.1l.33-.12c.49,0,1,.08,1.42.08s1-.08,1.54-.06l.21.12a2,2,0,0,1,.2.85c.35.49.37,1.42.66,2,0,0-.06,0,0,0l-.06.12a.87.87,0,0,1-.39.1c-.52-.25-.7-.92-1.2-1.15-.34-.51-.74-.66-1-1a6.62,6.62,0,0,0-2.37-.35c-.33,0-.7,0-1.05,0l-.29.19c-.41.49-.25,2.61-.25,3.25,0,.22-.08.43-.08.64s.08.43.09.65c0,.38,0,.79,0,1.2a13.15,13.15,0,0,0,1.78,0l.61-.29c.13-.15.45-.37.5-.53l0-.11a10.73,10.73,0,0,1,.28-1.32l.19-.18a.69.69,0,0,0,.35-.08l.14.06,0,.06.06,0,0,.13a9.15,9.15,0,0,0-.07,1.74c0,.77,0,1.57-.08,2.35h-.06a6.48,6.48,0,0,1,.18.9l0,.19c0,.06-.06.12-.08.17l-.08,0-.08.08a.65.65,0,0,0-.39,0,.37.37,0,0,0-.15-.13c0-.06,0-.18,0-.22-.16-.47-.18-1-.3-1.48l-.21-.27-.56-.25a3.28,3.28,0,0,1-.43,0c-.37,0-.76-.1-1.15-.1l-.52,0a4.9,4.9,0,0,1,0,.54c0,.22-.08.43-.08.65s.09.44.09.66c0,.5,0,1,0,1.5a10.79,10.79,0,0,0,.11,1.88l.08.1c.19.1.41.14.62.23a1.83,1.83,0,0,1,.66.06l.37-.1c.1.06.33.16.39.28v.07a.8.8,0,0,1,.08.37Z" transform="translate(-222.03 -138.72)"/><path class="cls-1" d="M545.71,406.9a.62.62,0,0,1-.16.45.37.37,0,0,1-.15,0,4.7,4.7,0,0,1-.74-.1,2.25,2.25,0,0,1-.89.08,2.48,2.48,0,0,1-.86-.06,2.61,2.61,0,0,1-.78.1c-.6,0-1.24,0-1.85,0l0-.12-.17,0a.38.38,0,0,1-.08-.11v-.26l.14-.21c.46-.1,1,0,1.42-.14a.24.24,0,0,1,.15-.11,15.31,15.31,0,0,0-1.24-4l-1.19,0h-1.89c-.37,0-.78-.08-1.16-.08l0,.1-.1,0,0,.23c-.27,1.13-.84,2.18-1.09,3.29a.75.75,0,0,0,.27.54,1.45,1.45,0,0,1,.58.1c.1,0,.22-.06.3-.06a3.6,3.6,0,0,1,.79.12l.12.08c0,.05.06.11.08.17a.51.51,0,0,1-.08.29.53.53,0,0,0-.12.1,3,3,0,0,1-.6,0c-.33,0-.64-.08-.95-.1s-.51.06-.76.06-.25-.08-.39-.08c-.45,0-.86.1-1.3.1h-.35l.11-.12,0,0,0-.13V407a.5.5,0,0,1,0-.13,2.84,2.84,0,0,1,.68-.22l.16,0,.12,0a3.59,3.59,0,0,1,.46-.5l.08-.41.25-.22a4.14,4.14,0,0,1,.43-1.3c.29-.7.35-1.54.64-2.22.55-1.28,1-2.57,1.58-3.83.29-.66.41-1.42.64-2.08a8.29,8.29,0,0,0,.55-1.21l-.14-.43c.1-.37.6-.93.59-1.16l.09-.08a1.68,1.68,0,0,1,.43.17l.14,0h.13l.14.3,0,0a8.42,8.42,0,0,1,.64,1.87c.33,1,.64,2,.94,2.94a6.86,6.86,0,0,0,.35.78,20.23,20.23,0,0,0,1.16,3.42c.06,1,.88,2.08,1,3.13a2.86,2.86,0,0,1,.35.53l.3.23a2.7,2.7,0,0,0,1,.1l.25.18Zm-8.21-8.13c-.08.12-1.21,2.88-1.21,2.88a2.81,2.81,0,0,0,.71,0c.27,0,.56.1.83.1.8,0,1.6-.12,2.38-.14a12.14,12.14,0,0,0-.49-1.79c-.08-.19-.23-.41-.29-.6s0-.47-.1-.68a5.93,5.93,0,0,0-.7-1.81l0-.33-.12-.26h-.11a24.32,24.32,0,0,0-.9,2.51Z" transform="translate(-222.03 -138.72)"/><path class="cls-1" d="M559.12,407.51a7.23,7.23,0,0,1-1.71-1.91,15.91,15.91,0,0,0-1.11-1.21,6.34,6.34,0,0,1-.51-.68,30.78,30.78,0,0,0-2.33-2.57,28.59,28.59,0,0,0-4.05-4.72,16.19,16.19,0,0,0,0,2.53c0,.48-.08.93-.08,1.44,0,.21.08.44.08.66s-.08.29-.08.43.1.56.1.83l0,.88a8.1,8.1,0,0,0-.06.87h-.07c.17,0,.13.72.13.82s.14.8,0,.93a4.77,4.77,0,0,0,.2.57l.85.29c.26,0,.51,0,.74,0s.28,0,.41,0l.12.1a.83.83,0,0,1,0,.44l-.1.08v0a1.38,1.38,0,0,1-.64,0l-.2.06a4.48,4.48,0,0,1-1.16-.12c-.08,0-.57.14-.63.14s-1.84-.1-1.86-.12a2,2,0,0,0-.41.12l-.16,0s-.1-.08-.11-.12l0-.09,0-.28s0,0,0,0a.57.57,0,0,1,.27-.21l.41,0,.17-.06c.45.08.74-.17,1.17-.23l.15-.16c0-.72.12-1.48.12-2.2,0-.44-.14-.91-.14-1.34a16.21,16.21,0,0,1,.18-3.09l-.16-.88.1-.43-.08-.44a4.3,4.3,0,0,0,.08-.45,13.84,13.84,0,0,0-.19-1.89,5.9,5.9,0,0,0-2.18-1.13l-.06-.06-.12,0c0-.05,0-.13-.06-.17l0-.21.08-.24.14-.08h.29c.64,0,1.32.18,1.95.18a5.32,5.32,0,0,0,1.38-.1c.43.2.89.94,1.18,1.3l0,.24.1.17h0c.14,0,.49.55.54.63a9,9,0,0,1,1,1c.07.12.11.29.19.41a8.71,8.71,0,0,0,1.11,1.24c.47.53.78,1.21,1.26,1.71a26,26,0,0,1,3,3.27l.37.22a1.79,1.79,0,0,0,.35.62,2.9,2.9,0,0,1,.14-.7,4.5,4.5,0,0,1-.08-.51c0-.15.1-.31.1-.44,0-.59,0-1.17,0-1.74a3.48,3.48,0,0,0-.1-.44c-.06-.7-.06-1.4-.06-2.1,0-.26-.06-.53-.06-.8s.06-.27.06-.41c0-1.17.08-2.76-1.44-2.86l-.15-.1a2.1,2.1,0,0,1-.61,0l-.13.08,0-.16,0,0c0-.05,0-.13,0-.19a.78.78,0,0,1,0-.21.31.31,0,0,1,.12-.16c.21,0,.42,0,.64,0,.54,0,1.11.14,1.63.14.14,0,.29-.08.43,0a3.3,3.3,0,0,1,.88-.1,2.26,2.26,0,0,1,.83.12c.1,0,.59-.14.66-.14a.53.53,0,0,1,.12.1l.06.08V394a5,5,0,0,1-.16.51l-.48,0a2,2,0,0,0-.57.33,1.72,1.72,0,0,0-.54.18,3.88,3.88,0,0,0-.45,1.71l-.1,0a0,0,0,0,1,0,0,.53.53,0,0,1-.06.19,12.37,12.37,0,0,1-.07,2.43s0,.1,0,.12c0,.29-.1.6-.1.92,0,.54.19,1.16.19,1.75s-.19,1.07-.19,1.63c0,.14.06.27.06.43s0,.27,0,.43l0,.37v0h0a9.26,9.26,0,0,1,.08,1.28,2.8,2.8,0,0,1-.12,1.17l0,0,0,.05h-.14v.32Z" transform="translate(-222.03 -138.72)"/><path class="cls-1" d="M572.08,407.25s0,0,0,.06-.15.06-.23.1c-.39,0-.8-.1-1.17-.1a7.19,7.19,0,0,0-1.13.1l-.36-.1c-.28,0-.57.1-.82.1s-.53-.08-.78-.08a8,8,0,0,0-1.19.12l-.09-.08,0-.06s0-.06,0-.08a2.61,2.61,0,0,0,0-.39.31.31,0,0,1,.13-.17l.22-.06.21.08a4.2,4.2,0,0,1,.86-.1l.39-.21.09-.16a3.54,3.54,0,0,0,.1-1c0-.15-.06-.29-.06-.45a4.14,4.14,0,0,1,.08-.44c0-.35-.06-.68-.06-1s.06-.7.06-1l0-2.49v-3.69a5.18,5.18,0,0,0-.15-1.64,3.32,3.32,0,0,0-1.13-.15,17.73,17.73,0,0,0-2,.13,1.67,1.67,0,0,1-.76.49,6.36,6.36,0,0,0-1.34,1.79.59.59,0,0,0-.27,0l-.33-.16c.13-.31.15-.66.25-1,.16-.56.37-1.13.54-1.67l0,0v-.22l.28-.66.09.16h.08a1.27,1.27,0,0,1,.62.39c.51,0,1,.11,1.52.11,1.13,0,2.26-.11,3.39-.11.4,0,.81.1,1.22.1.18,0,.39-.08.57-.08a16.61,16.61,0,0,1,1.73,0,9.12,9.12,0,0,0,1.48-.08,7.78,7.78,0,0,0,.74-.47.36.36,0,0,0,.15.12l0,.12,0,.05c.45,1.07.58,2.22,1,3.29h-.09l-.08.12a.63.63,0,0,0-.2.1l-.07-.06-.06.06a6.7,6.7,0,0,0-1.62-2.12,1.91,1.91,0,0,1-.81-.39l-.57,0c-.17,0-.33-.08-.5-.08a6.67,6.67,0,0,0-1.76.13l-.05.1a2.3,2.3,0,0,0-.1.51c0,.35.06.7.06,1.07,0,.21-.08.41-.08.62s.08.41.08.62c0,.8-.08,1.64-.08,2.45,0,.22.08.41.08.63s-.06.42-.06.64.06.41.06.6l0,1.58c0,.13-.06.25-.06.37a13.71,13.71,0,0,1,0,2.31c.12.29.23.62.58.72a1,1,0,0,0,.49,0l.39.12.21,0a.45.45,0,0,1,.27.12l.06.09v.41Z" transform="translate(-222.03 -138.72)"/><path class="cls-1" d="M582.85,407.41a1.45,1.45,0,0,1-.72-.1l-.59.08-.42-.1c-.3.08-2.24.1-2.65.1-.25,0-.55-.1-.82-.1a3.41,3.41,0,0,0-.89.12v0l-.08,0v0l-.1-.06a.82.82,0,0,0,.06-.39.66.66,0,0,1,.14-.15l.19-.06.27,0,.43-.08.33,0a1.8,1.8,0,0,0,.8-.41,2.24,2.24,0,0,0,.16-1c0-.14-.08-.29-.08-.45,0-.62.08-1.26.08-1.9,0-1.75.07-3.51.07-5.28,0-.11.08-.23.08-.35,0-.29-.08-.56-.08-.83a3.12,3.12,0,0,1,.08-1,2.77,2.77,0,0,1-.11-.71c-.39-.43-1.6-.32-2.15-.47a.61.61,0,0,1,0-.33v-.1l0-.08v-.1l.12-.09.16,0c.39,0,.81-.06,1.22,0,.1,0,.37.11.45.11h1.6c.91,0,1.82-.15,2.74-.15a.5.5,0,0,1,.21.1l.06.11a1.17,1.17,0,0,1-.06.45,1,1,0,0,0-.15.08l-.12,0a6.17,6.17,0,0,0-1.44.15,2.37,2.37,0,0,1-.41.33,7.31,7.31,0,0,0-.11,1.68c0,.33-.06.66-.06,1,0,.68-.12,1.38-.12,2.08s.08,1.34.08,2-.14,1.14-.14,1.69c0,.91.06,1.79.06,2.68,0,.14,0,.25,0,.39l.16.14.44.17c.1,0,.82.08,1.07.08a2.2,2.2,0,0,1,.37.06l0,.06.14,0,0,.27-.12.14v.09Z" transform="translate(-222.03 -138.72)"/><path class="cls-1" d="M595,407.39l-.14,0a1.77,1.77,0,0,1-.31.08c-.84,0-1.69-.12-2.51-.12-.27,0-.58.1-.89.1-.12,0-.29-.1-.43-.1s-.58.1-.88.1-.56-.12-.87-.12-.88.1-1.32.1c-.14,0-.28-.08-.43-.08a14,14,0,0,1-2.42,0,1.57,1.57,0,0,1-.44.1h-.1l-.1-.1H584l.15-.15,0-.12a1.42,1.42,0,0,1,.06-.31l.1-.08h.15l.18-.08c.23,0,.47,0,.7,0s.29-.1.49-.06a1.19,1.19,0,0,0,.23-.31,38.86,38.86,0,0,0,.08-4.74c0-1.54.06-3.1.06-4.66,0-.6-.12-1.22-.06-1.84a2.16,2.16,0,0,0-.22-.49,1.94,1.94,0,0,0-1.51-.23.67.67,0,0,1-.3-.18V394c0-.14.08-.14,0-.32a.39.39,0,0,1,.14-.21,1.31,1.31,0,0,0,.56.06,2,2,0,0,1,.35,0v.08c0-.14.7-.06.74-.06l3.27,0c.16,0,.33-.08.47,0l.39-.08.13.06v.06l.12.06,0,.11a.61.61,0,0,1,0,.27l0,.1a.77.77,0,0,1-.25.16c-.27,0-.55,0-.82,0a2.08,2.08,0,0,0-.56.13l-.2.18a2.17,2.17,0,0,0,0,.51,3.79,3.79,0,0,1-.13.93,7.3,7.3,0,0,1,.08.93c0,.43-.1.86-.1,1.29a7.19,7.19,0,0,0,.13,2,5.49,5.49,0,0,0-.13.66c0,.22.08.45.1.68,0,.43-.06.9-.06,1.35,0,.25.09.54.09.83s-.11.43-.11.62.11.55.11.8c0,.43-.07.92-.11,1.36a.83.83,0,0,1,.33.18l1.11.27a10.28,10.28,0,0,1,1.11,0c.62,0,1.24-.13,1.86-.13.22,0,.43-.3.57-.24.19-.21.56-.27.76-.46a6.26,6.26,0,0,1,.6-.67,14.11,14.11,0,0,1,.91-1.49l0-.24.08-.08a1.08,1.08,0,0,1,.31,0l.18,0,.09.12,0,.12-.08.1a16.84,16.84,0,0,0-.62,2.25l-.13.22a1.71,1.71,0,0,1-.22.74Z" transform="translate(-222.03 -138.72)"/></g><g id="subrayado"><rect class="cls-1" y="244.98" width="397.82" height="0.56"/></g><g id="logotipo"><path class="cls-1" d="M242.22,309.85c-1.2-4.6-1.2-5.26-1.2-6.14a18.35,18.35,0,0,1,.11-2.51,10.86,10.86,0,0,1,4.16-7.78,11.39,11.39,0,0,1,3.07-1.42,7,7,0,0,1,2.19-.33c2.4,0,4,1,5.91,3.5l.44.33c.43.66.65.66.87,1.32.33.43.33,1.53.66,2s.76.76,1.09.76a.55.55,0,0,0,.55-.43,22,22,0,0,0,1.53-2.74,21.42,21.42,0,0,1,5.15-6.13l.77-.22a7.35,7.35,0,0,1,3-.77,1.92,1.92,0,0,1,1.64,1,.49.49,0,0,1-.33.44c-.32,0-.76-.77-1.42-.77a1.8,1.8,0,0,0-.76.11c-.66.22-.66.44-1.1,1a17.94,17.94,0,0,0-4.49,7.78c0,.11-.11.22-.11.33-.33,1.2-.76,2.08-1.09,3.17a2.82,2.82,0,0,1-.22.55v.44c0,.11-.33.65-.33.76s.11.88.11,1c-.11.87-.44,1-.77,1.75v.88a18,18,0,0,0-.33,2.4c-.65,1.76-1.31,3.29-2.84,3.29-1,0-1-2.63-1-3.5s.55-2.19.55-3.18a11.85,11.85,0,0,0,.55-3.17,13.61,13.61,0,0,0-.77-4.71c-.11-.44-.55-.77-.66-1.1v-.76c-.43-.66-1.2-1-1.64-1.65s-.76-1.64-1.53-2.19a9,9,0,0,0-3.72-.87c-3.83,0-4.27,6.68-4.27,9.74,0,1,.22,1.86.22,2.63l.32,3.72c0,.55.44.88.44,1.43a18.62,18.62,0,0,0,1,4.92,31.47,31.47,0,0,0,1.42,3.4,12.94,12.94,0,0,1,2.85-.22s1,.22,1.09.22c1.86.54,2.63,1.53,2.63,2.41,0,1.09-1.2,2.29-3.28,2.29a10,10,0,0,1-5.26-2.4,9.52,9.52,0,0,0-3.17,2.73,34.93,34.93,0,0,0-3.62,5.59,27.14,27.14,0,0,0-1.75,7.22c-.55,2.74-.66,5.48-1,8.43,0,.88.43,1.1.43,1.64a45.66,45.66,0,0,0,.33,5.48,13.89,13.89,0,0,0,.11,2.19c1.53,6.79,2.52,10.73,6.46,15.44a10.21,10.21,0,0,0,3.07,2.62,6.69,6.69,0,0,0,2.73.55,9.94,9.94,0,0,0,3.4-.55,18.81,18.81,0,0,0,3.06-1.75c5.91-4.05,8.43-8.43,11.61-13.14-.33-2.08-.33-3.06-.55-5.69v-.66c0-1.09.11-2.84.22-6.35,0-.32.22-2.84.22-3.17.22-3.4.44-6.24,1-9.64.22-1.86.55-3.83.88-5.69a73.24,73.24,0,0,1,1.75-8.1l2.3-7.23a11.81,11.81,0,0,1,.77-2.62l3.39-7.45a24.38,24.38,0,0,1,2.3-3.94l1.31-2.63c1.43-1.31,2.41-2.95,3.84-4.16l.43-.33c1.21-1.09,3.07-2.62,4.82-2.62h.44c2.3.43,2.41,2.84,2.41,5v.55a44.39,44.39,0,0,1-1.21,8.54c-.11,1.2-.87,2.19-1,3.5a32.5,32.5,0,0,1-1,4.71c-.55,2.08-1.31,4.27-1.86,6.35,0,.22-.55,1.53-.55,1.75-.22.77-.65,1.64-.87,2.41l-1,3.29c0,.1-.87,2.95-.87,3.06-.66,1.75-.88,2.85-1.54,4.6a50.24,50.24,0,0,1-2,4.82c0,.21-1.53,3.94-1.53,4.05s-1.09,2.19-1.09,2.3l-2,3.39c0,.11-1.2,1.86-1.2,2.08-.88,1.42-1.75,3.28-3.17,5.36a16.55,16.55,0,0,0-.22,3.29,42.11,42.11,0,0,0,.32,5,15.76,15.76,0,0,0,.33,2.08c0,.1.11.32.22,1a15.46,15.46,0,0,0,1.43,3.5c.76,1.54,2,2.85,3.5,2.85a2.15,2.15,0,0,0,.77-.11,9.45,9.45,0,0,0,2.18-.87c3.07-2.08,3.4-2.52,4.17-3.62l.21-.33c.44-.54,2.85-4.48,3.18-5,.66-1.1,1.2-3.07,2.19-4.82.11-.22.22-.22.44-.22s.65.11.65.55a1.87,1.87,0,0,1-.11.77l-.54,1.53-2.74,4.82s-2.63,3.61-3.5,4.7a11.59,11.59,0,0,1-2.85,2.41,12.92,12.92,0,0,1-2.63,1.42l-.44.22a4.59,4.59,0,0,1-1.31.22,7.13,7.13,0,0,1-4.27-1.75c-3-2.41-4.16-5.36-4.93-9l-.43-2-1.21,1.75c-.65,1-2.52,3.4-3.83,5a48.82,48.82,0,0,1-6.46,5.8,13.76,13.76,0,0,1-7.33,2.63c-1.21,0-3.84-.22-4.93-.88l-.55-.32a5.64,5.64,0,0,1-1.09-.33l-1.43-1.32c-.33-.32-1-.43-1.31-.87a34.35,34.35,0,0,1-7.34-10.29c-1.53-3.18-1.86-7-2.19-10.51l-.21-.77v-2.74c0-2.73,1.31-5.8,2.08-8.86a23.23,23.23,0,0,1,4-8.65c.22-.44.11-.66.54-1.1a22.75,22.75,0,0,0,2.19-2.41,19.25,19.25,0,0,1,2.85-3.06,32.64,32.64,0,0,0,3.61-2.85C245.29,317.18,243.87,314,242.22,309.85ZM253.28,322c1,0,1.43-.55,1.43-1,0-1-1.32-2.19-3.4-2.19a2.72,2.72,0,0,0-1.53.44,7.11,7.11,0,0,0,1.64,2.19A5.53,5.53,0,0,0,253.28,322Zm20.8,26.71v.55c.33-.44,1.87-3.39,2.19-4.05a21.75,21.75,0,0,0,1.76-3.07l1.2-2.08c1.09-3.17,1.64-3.5,2.74-6.35,0-.11,2-5.58,2-5.69l1.09-3.61c0-.22.33-.77.33-1s.44-.66.44-.76l.33-1c.54-1.86,1.2-3.72,1.86-6.24a14.44,14.44,0,0,0,.44-1.53,32.86,32.86,0,0,1,1.31-4.82c0-.11.22-.55.22-.66.22-.54.11.66.66-3.28,0-.33.43-.44.43-1.53a3.62,3.62,0,0,1,.33-.66l.44-2.52c0-.11.22-.55.22-.66l.22-2a21.18,21.18,0,0,0,.44-3.5v-.66a12.85,12.85,0,0,0,.22-2.41c0-1.75-.11-3.06-1.65-3.06-.87,0-2.3,1.42-2.95,2.19a23.35,23.35,0,0,0-3.51,5.69l-3.17,7.23a13.25,13.25,0,0,0-.55,1.53,87,87,0,0,0-2.74,9c-.22,1.2-.11,2.08-.32,3.28-.22,1-.77,1.86-1,2.85-.33,1.53-.22,2.95-.55,4.49l-.76,4.49C275.18,331.41,274.08,345.87,274.08,348.71Z" transform="translate(-222.03 -138.72)"/><path class="cls-1" d="M300.9,341.71c1.65,0,2.08.87,2.85,2.4a10.92,10.92,0,0,1,.88,4.49v1.21a4.9,4.9,0,0,1-.22.87c0,.11-.44,1.43-.44,1.53s-.22,1-.22,1.1a8.69,8.69,0,0,1-.66,1.09,8.09,8.09,0,0,1-1.09,2,2.25,2.25,0,0,1-.66.43,6,6,0,0,1-2.19,1.54c-.33.11-1.64.11-2.19.22v1.53c.11,3.06.88,6.79,3.29,9.08.65.66,2.63.66,3.28.66a5.39,5.39,0,0,0,2.63-.44l.55-.65a24.32,24.32,0,0,0,2.62-2,25.11,25.11,0,0,0,3.95-5.48c1.09-1.86,1.64-3.83,2.84-6a.71.71,0,0,1,.55-.22c.33,0,.55.33.66.77a47.78,47.78,0,0,1-3.84,7.44,7.33,7.33,0,0,1-.65,1.32,19.32,19.32,0,0,1-6.13,5.8,11.9,11.9,0,0,1-3.4.87,11.43,11.43,0,0,1-8.1-3.28,17.38,17.38,0,0,1-1.75-2.52,16.44,16.44,0,0,1-1.75-8.32,13.71,13.71,0,0,1,.22-2.3c.11,0,.22-.33.22-.44v-1.75a17,17,0,0,1,5.47-9.85A5,5,0,0,1,300.9,341.71Zm-2.62,15.87c1.31,0,3.83-2.52,4.27-3.61a31,31,0,0,0,.87-3.29,3.34,3.34,0,0,0,.22-.87v-1.54a8.08,8.08,0,0,0-1-4.38,2.27,2.27,0,0,0-2-1.31c-.88,0-1.32.66-1.54,1.64-.33.66-.65,1.54-1,2.41v.44c0,.11-.44,1-.44,1.09-.33,1.76-.44,3.4-.77,5.15a21.71,21.71,0,0,1-.22,2.41,4.82,4.82,0,0,0,.11,1.2C297.07,357.47,297.51,357.58,298.28,357.58Z" transform="translate(-222.03 -138.72)"/><path class="cls-1" d="M316.67,354.19a1.39,1.39,0,0,0,.22-.66,10.39,10.39,0,0,1,2.08-2.85c.65-.65,1.53-1.86,2.19-2.08a5.6,5.6,0,0,1,1.31-.33,1.53,1.53,0,0,1,1,.44c.54.77,1.42.33,1.53,2.74a14.32,14.32,0,0,1,.33,1.64c.22,0,.54.44.87.44s.55-.22.77-.77c.55-1.53,1.75-2.73,2.41-4.16.44-.87.76-1.75,1.31-2.63.22-.21.44-.65.88-1.09l1.09-2.19.44-.44c1.31-1.53,2.08-3.61,3.72-4.81l.88-.44.22-.44a3.64,3.64,0,0,1,.65-.66h1.32c1,.11,1.64,1.1,2.08,1.75a5.75,5.75,0,0,1,1.09,2.63,14.78,14.78,0,0,1,.66,3.83v.55c0,.33-.22,3.18-.22,3.5l-.44,3.4c0,.11-.33,1.64-.33,1.75-.21,2.74-1.09,5.69-1.31,8.43-.11,1.2-.33,2.63-.33,4.05V368a21,21,0,0,0,.33,3.72s.66,3.07.77,3.51l.87,3.17s.77,1.42,1.21,2.52a7.19,7.19,0,0,0,1.64,2.3c.66.76,1.86,2.08,2.41,2.19a8,8,0,0,0,1.86.33,2.53,2.53,0,0,0,1-.22c.77-.22,2.08-2,2.52-2s.77,0,.77.43a1.2,1.2,0,0,1-.11.55c-.33,1-3.18,2.85-4.49,2.85s-2.19-.66-3.28-.77a3.59,3.59,0,0,1-2.19-1.53c-.11-.22-.55-.44-1.21-1a18.5,18.5,0,0,1-2.52-2.29c-.21-.44-1.75-3-1.75-3.07s-1.42-2.19-1.42-2.41a39,39,0,0,0-1.31-5.8,7.55,7.55,0,0,1-.44-2.08c0-1.42-.22-2.63-.22-4.27a32.52,32.52,0,0,1,.44-6.13l.65-3.4c.11-.76.88-4.81.88-5.8,0-.44.22-2.19.22-2.41a13.69,13.69,0,0,1,.44-1.75c0-.22.21-1.53.21-1.75,0-.44.22-2,.22-2.19a13.07,13.07,0,0,0,.33-2.19,1.45,1.45,0,0,0-.55-1.31l-2.4,2.4c-.22.66-1,1.21-1.32,1.76-.33.33-.33,1-.87,1.53-1,1.42-2.19,3.06-3.07,4.6a18.84,18.84,0,0,0-.87,2.41,7.31,7.31,0,0,0-.66,1.31c0,.11-.22.77-.22.88l-.88,1.53a5.25,5.25,0,0,0-.43,1.2,7.58,7.58,0,0,1-.44,1.1,18,18,0,0,0-.66,2.63l-1.09,3.28c-.22.66-.66,1.31-.88,2-.33.88-.66,2.3-1.09,3.28-.11.33-.66.44-.88.44h-.88a1.61,1.61,0,0,1-.22-.44,17.19,17.19,0,0,1-1.53-7V359c0-.22.22-1.2.33-2.08a4.19,4.19,0,0,1,.11-1,25.13,25.13,0,0,1,.33-3.18c0-.65-.11-1.09-.55-1.09s-1,.44-1.42,1.31c-.11,0-.33.44-.44.66l-1.1,2.41a1.34,1.34,0,0,1-.76.44.5.5,0,0,1-.44-.55v-.44Z" transform="translate(-222.03 -138.72)"/><path class="cls-1" d="M362.43,369.08c-.66.87-1.53,2.51-2.85,2.73h-.44a8.54,8.54,0,0,1-1.75-.22c-.11,0-.44-.43-.44-.43-1-.66-2.08-1-2.84-2-1-1.31-.66-2.29-1.1-3.94-.33-1.2-.43-2.51-.43-6.35,0-.11.32-1.09.32-1.2a32.68,32.68,0,0,1,3-10.62,18.68,18.68,0,0,1,4.82-6.79c1.86-1.86,4.05-3.39,6.57-3.39a8,8,0,0,1,3.83,1.09c3.28,1.75,4.16,5.7,4.16,9.86a14.73,14.73,0,0,1-1.64,6.67l-.66.44-.22-.55a9.57,9.57,0,0,1,.66-2.29c0-.11.33-.66.33-.77a21.52,21.52,0,0,0,.54-4.49,13.15,13.15,0,0,0-1.31-5.69c0-.11-.22-.88-.22-.88l-.44-.33a6.9,6.9,0,0,0-4.49-2.08,3.89,3.89,0,0,0-1.2.22,7.57,7.57,0,0,0-3.29,2.85l-1.09,1.31a9.3,9.3,0,0,0-.88,2.19,7.33,7.33,0,0,0-.65,1.32,26,26,0,0,0-1.1,3.94,32.54,32.54,0,0,0-.87,3.5v1.53c0,.11-.22.77-.22.88a68.85,68.85,0,0,0-.66,10.62c0,3.94,1,4.6,1.2,4.6,1.65,0,4-4.27,4.27-5v-.66c.11-1.09.77-1.75,1.1-2.73,0-.88.22-2.19.22-2.41s.22-2.74.22-3.07a7.21,7.21,0,0,1,.87-3.06,1.37,1.37,0,0,1,.88-.66h2a7.7,7.7,0,0,1,1.31,1.31,2.07,2.07,0,0,1,.22.88c0,.66-.11,2-.11,2.63,0,2.08-.33,3.17-.33,4.81a25.92,25.92,0,0,0,.22,3.07,30.58,30.58,0,0,0,.66,3.07c.55,1.64,1.31,2.51,2.19,2.51a4.17,4.17,0,0,0,2.63-1.53,20.92,20.92,0,0,0,2.63-3.39l1.2-2.19a4.6,4.6,0,0,0,.44-1.1c.44-1,1.86-3.17,2.08-4.38s1.64-3.5,2-4.27a1.43,1.43,0,0,1,1-.65c.22,0,.44.32.44.43a46.1,46.1,0,0,1-1.75,4.27L382,361.52a36.56,36.56,0,0,1-2.41,4.49l-.44.66c0,.11-.77.43-.77.54s-.11.88-.11,1a9.44,9.44,0,0,1-1.64,2l-1,.88a3.36,3.36,0,0,1-2.85,1.42,3.87,3.87,0,0,1-2.08-.44c-.11,0-1.21-.66-1.31-.66-1.1-.76-1.87-.76-3-3.06a8.61,8.61,0,0,1-2-3.72A16.87,16.87,0,0,1,362.43,369.08Z" transform="translate(-222.03 -138.72)"/><path class="cls-1" d="M431.07,374.66c-.11,0-.87-.33-1-.33H429a6.63,6.63,0,0,1-1.42-.33,14.12,14.12,0,0,1-7.56-3.72c-.32-.33-.76-.44-1-.88l-1.32-2.19a28.28,28.28,0,0,1-2.51-4.27,18.68,18.68,0,0,1-.77-2.29,37.1,37.1,0,0,1-2.74-10.73c-.22-.88-.22-3.84-.54-4.49v-4.27c0-.11.11-.66.11-.88v-3.83c.1-1.86.65-3.61.65-5.47v-.55c.77-4.6.77-4.82.77-4.82l.55-3.61c.21-.66.65-1.32.87-1.86a13.78,13.78,0,0,0,.55-3.07A56.22,56.22,0,0,1,419,305.9c.55-.87,1.42-2,1.86-2.73a60.1,60.1,0,0,1,7.44-8.43,9.72,9.72,0,0,0,1.21-.88,31.12,31.12,0,0,1,4.16-2.19,12.74,12.74,0,0,1,5.58-1.2c4.6,0,6.46,5.47,7.78,9.85,0,.33-.11.77-.11.88l.43,1.75v3.39l.22.77v3.72a7.43,7.43,0,0,0-.22,1.53v1a14.52,14.52,0,0,1-.32,3.07c0,.1-.44.54-.44.65v1.32a19.72,19.72,0,0,1-.88,3.83c-.22.87-.22,2-.44,2.84-.54,1.76-2.08,5.15-2.08,5.26,0,.66-.87,1.64-1.2,2.08-.77,1-1,1.53-1.86,1.53a6.59,6.59,0,0,1-1.32-.22l-.65-.11c-.11,0-.44-.65-.44-.76s-.66-.66-.66-.77c-.65-1-.65-2.41-1.09-3.39-.11-1.54-.22-3.07-.22-4.49a28.33,28.33,0,0,1,1.86-10.84c0-.11.77-1.53,1-2a3.21,3.21,0,0,1,2.95-1.75h.66c.66.11.87.43.87,1,0,1.53-1.53,2.52-1.64,5.48l-.11,2.19a4,4,0,0,1-.44,1.2,20.85,20.85,0,0,0-.54,2.41c0,.11,0,.77-.11.77v1.64c-.11.11-.22.22-.22.33s.22.54.22.87l-.44.44s.22.22.22.33.11.22.11.44-.33.87-.33,1.2c0,.11,0,.22.22.33.22.44.11,2.74.55,2.84h.65l1.21-1.31.65-2a2.82,2.82,0,0,1,.22-.55l.44-.33c0-.1.11-.76.11-.87a22,22,0,0,0,.77-2.52l.33-.44v-.65a2.11,2.11,0,0,1,.76-1.65c0-.32-.11-.54-.11-.76v-.55a6.36,6.36,0,0,1,.44-2v-1.42l.44-2c0-.22-.11-.55-.11-1a40.09,40.09,0,0,0,.33-4.27,7.43,7.43,0,0,0-.22-2.3c0-.33.11-1,.11-1.75a6,6,0,0,0-.44-2.63.4.4,0,0,1-.11-.33c0-.32.11-.87.11-1.42l-1.2-3.61a1.74,1.74,0,0,0-.55-.88,13.43,13.43,0,0,1-1.64-2.95l-1.65-1.54a1.79,1.79,0,0,1-1.09-.22h-1.64a3.5,3.5,0,0,0-1.54.22,16.06,16.06,0,0,0-3.17,1.32,19.16,19.16,0,0,0-4.38,3.5c-.88,1-1.31,2.3-2.3,3.28l-.66.77c-.54.44-.76,1.31-1.2,2a80.37,80.37,0,0,0-3.28,7.67,8.83,8.83,0,0,0-.66,1.53,24,24,0,0,0-.55,2.73A9.18,9.18,0,0,0,420,317c-.54,3-.54,3.07-.54,3.07,0,.22-.33.44-.33.76-.88,4-.88,8.32-1.21,12.59l-.11.44v2.63c0,.22-.32,2-.32,2.3v3.5c0,.22-.11.44-.11.88l.43,2.84v1.1a4.4,4.4,0,0,0,.11,1.2l.33,3,.33.55v.76a19.34,19.34,0,0,0,.88,3.62,26,26,0,0,0,1,4.92c.33,1.21,1,2.08,1.43,3.29a3.12,3.12,0,0,0,1,1.86c1.21,2.85,4.49,6.24,7.88,7a7,7,0,0,0,2,.43c.55,0,1-.11,1.76-.11a.58.58,0,0,1,.43-.22,2.08,2.08,0,0,0,.55.12c1.31-.88,3-.66,4.27-1.54l3.94-3.83c.44-.55.44-1.53.77-2.08.11-.22.22-.33.44-.33s.32,0,.32.88a12.22,12.22,0,0,1-3.94,5.14c-.54.33-.76.88-1.42,1.21a45.26,45.26,0,0,1-4.38,1.31,7.31,7.31,0,0,1-2.95.66l-.44-.22Z" transform="translate(-222.03 -138.72)"/><path class="cls-1" d="M457.67,369.08c-.65.87-1.53,2.51-2.84,2.73h-.44a8.45,8.45,0,0,1-1.75-.22c-.11,0-.44-.43-.44-.43-1-.66-2.08-1-2.85-2-1-1.31-.65-2.29-1.09-3.94-.33-1.2-.44-2.51-.44-6.35,0-.11.33-1.09.33-1.2a32.7,32.7,0,0,1,3-10.62,18.8,18.8,0,0,1,4.82-6.79c1.86-1.86,4.05-3.39,6.57-3.39a7.93,7.93,0,0,1,3.83,1.09c3.29,1.75,4.16,5.7,4.16,9.86a14.6,14.6,0,0,1-1.64,6.67l-.66.44-.22-.55a9.57,9.57,0,0,1,.66-2.29c0-.11.33-.66.33-.77a20.88,20.88,0,0,0,.55-4.49,13.14,13.14,0,0,0-1.32-5.69c0-.11-.22-.88-.22-.88l-.43-.33a6.94,6.94,0,0,0-4.49-2.08,4,4,0,0,0-1.21.22,7.54,7.54,0,0,0-3.28,2.85l-1.09,1.31a9.3,9.3,0,0,0-.88,2.19,7.39,7.39,0,0,0-.66,1.32,27.2,27.2,0,0,0-1.09,3.94,32.54,32.54,0,0,0-.88,3.5v1.53c0,.11-.22.77-.22.88a68.84,68.84,0,0,0-.65,10.62c0,3.94,1,4.6,1.2,4.6,1.64,0,3.94-4.27,4.27-5v-.66c.11-1.09.77-1.75,1.09-2.73,0-.88.22-2.19.22-2.41s.22-2.74.22-3.07a7.07,7.07,0,0,1,.88-3.06c.11-.22.55-.66.87-.66h2a7.73,7.73,0,0,1,1.32,1.31,2.07,2.07,0,0,1,.22.88c0,.66-.11,2-.11,2.63,0,2.08-.33,3.17-.33,4.81a25.92,25.92,0,0,0,.22,3.07,30.58,30.58,0,0,0,.66,3.07c.54,1.64,1.31,2.51,2.18,2.51a4.15,4.15,0,0,0,2.63-1.53,20.37,20.37,0,0,0,2.63-3.39l1.2-2.19a4.6,4.6,0,0,0,.44-1.1c.44-1,1.86-3.17,2.08-4.38s1.64-3.5,2-4.27a1.45,1.45,0,0,1,1-.65c.22,0,.44.32.44.43a45.78,45.78,0,0,1-1.76,4.27l-1.31,2.85a35.25,35.25,0,0,1-2.41,4.49l-.44.66c0,.11-.76.43-.76.54s-.11.88-.11,1a10.1,10.1,0,0,1-1.64,2l-1,.88a3.35,3.35,0,0,1-2.85,1.42A3.92,3.92,0,0,1,466,372c-.11,0-1.2-.66-1.31-.66-1.09-.76-1.86-.76-3-3.06a8.72,8.72,0,0,1-2-3.72A16.27,16.27,0,0,1,457.67,369.08Z" transform="translate(-222.03 -138.72)"/><path class="cls-1" d="M514.27,388.12c1.43,0,2.85-1.64,3.73-2.95.54-1.21.65-1.21,1.64-3.72a18.05,18.05,0,0,1,.77-2.19c.11-.22.21-.66.43-.66s.22.11.33.22a.57.57,0,0,1,.22.44c-.11.76-.66,1.86-.87,3.06a17,17,0,0,1-.88,2.3l-1.21,2.3a17.17,17.17,0,0,0-1.2,1.31c-.11.22-.77.44-1.31.88a6.16,6.16,0,0,1-2.19.33,5.7,5.7,0,0,1-3.07-.88,16.21,16.21,0,0,1-4.27-4.38,8,8,0,0,1-1-2.19l-.55-1.86c-.33-1.31-1.2-3.06-1.53-4.27,0-.11-.11-.76-.11-.87-.22-.55-.22-1.43-.44-2.08l-.22-2.41c-.11-1.53-.22-3.4-.22-4.93,0-.11-.11-.87-.11-1a28.91,28.91,0,0,1-.22-3v-13.9c0-.11.11-3.84.11-4.38a9,9,0,0,1,.11-1.54l-1.64,3.84c-.33.76-1.75,3.17-1.75,3.17l-2.08,3.29c-.11.1-1.32,1.64-1.32,1.64l-2,2.52c-.11.22-2.19,2.19-2.08,2.19a22.88,22.88,0,0,1-2.41,2.19v2.4c0,.22-.21,3.73-.21,3.84l-.22,1.31a18.51,18.51,0,0,1-.44,2.41c0,.11-.44.87-.44,1a3.72,3.72,0,0,1-.44,1.1,6.63,6.63,0,0,0-.33,1.42c0,.77-1.09,2.41-1.31,3.07-.55,1.09-.22.22-1,1.2l-.22.33a1.61,1.61,0,0,0-.22.44c0,.11-.44.76-.44.87l-.44.77-1.53,1.86a6.87,6.87,0,0,1-3.51,1.53,4.94,4.94,0,0,1-2.62-1.53c-.44-.33-.77-2.19-.77-3.06,0-1.65,1.21-5.92,2.19-7,1.42-2.52,4.82-7.56,7.45-9.53a11,11,0,0,0-.22-1.75c0-.22-.11-.55-.11-.44a7.64,7.64,0,0,1-.33-1.53c-.22-1.09-1.21-4.27-1.75-6.13l-.66-2.52c-.11.33-.33.55-.33.77-.33,1-.55,2.3-1,3.28a29.26,29.26,0,0,1-1.65,3.73c-.65,0-1-.22-1.09-.88.66-1.53,1.42-3,2-4.38l1.31-3.28c0-.11.22-.66.22-.77a1.36,1.36,0,0,0,.22-.33,37.06,37.06,0,0,1-.44-5.91c.88-2.52.88-5.26,3.4-6.79a9,9,0,0,1,1.42-.87c.22,0,.77-.11,1.31-.11a1.46,1.46,0,0,1,1.65,1.42,4.35,4.35,0,0,1-.22,1.09l.11.66c-.22,1.75-1.64,3.18-2,4.82,0,.11-.11,1.09-.11,1.31v.66l-.22.77c.11.32.22.1.33.54v.66c.11,1,.43,3.61.43,3.72s.55,1.21.55,1.32l.11,2.18.22.44c.22,1,.33,2.19.66,3.18a1.56,1.56,0,0,1,.22.66,1.31,1.31,0,0,1-.11.54l.11.66,1.31-1.42,1.2-1.1,1.32-1.64a22.56,22.56,0,0,0,1.86-2.19l2-2.52c.66-.87,3-5.25,3.39-6.13s1.43-3.17,1.76-4.16l1-2.74c.11-2.19.22-4.16.22-4.16,0-1.42.33-2.52.44-4.16a11.54,11.54,0,0,1-3.4.44,6.72,6.72,0,0,1-1.42-.11l-1.09-.33a5.05,5.05,0,0,1-1.87-.87l-1.53-1.21c-.65-.55-.76-1.75-.76-3,0-1.65.76-3.4,2.29-3.4a1.4,1.4,0,0,1,.66.11,4.9,4.9,0,0,0-.76,2.85c0,2,.87,4.16,2.73,4.71a5.39,5.39,0,0,0,1.53.32H500a12.83,12.83,0,0,0,3.07-.65l.87-7.88c0-.11,0-.33-.11-.33a.5.5,0,0,1,.33-.33l1.32-.22c.11,0,.54-.22.65-.22l2.08.55.55.76a4.52,4.52,0,0,1,.22,1.54v.54l-.77,4.71c2-.44,1.86-.87,3.4-1.31,4.16-1.1,7.77-3,12-4a30.29,30.29,0,0,1,4.82-.88c.76,0,1.42-.22,3.83-.22a24.76,24.76,0,0,1,6.46.88,8.22,8.22,0,0,1,2.19,1.86,2.56,2.56,0,0,1,.55,1.75c0,.66-1.21,1.64-1.43,1.75a2,2,0,0,1-1,.33,1.06,1.06,0,0,1-1-1c0-.66.33-1.43.33-2.19a2.16,2.16,0,0,0-.55-1.65,21.57,21.57,0,0,0-6-.87,21,21,0,0,0-3.72.33,20.14,20.14,0,0,0-2.74.54l-2.84.66c-.33.11-2,.77-2,.77a9.48,9.48,0,0,0-2.19.65c-.65.22-2.08.88-2.62,1a35.53,35.53,0,0,0-4,1.42c-3.07,1-2.74,1.43-3.62,1.54a10.49,10.49,0,0,0-.32,2.08l-.33,2.95a21.71,21.71,0,0,1-.22,2.41c0,3.18-.11,4.27-.11,4.49v3.06c0,1.21,0,2.52-.11,3.84v11.16a16,16,0,0,0,.11,2.3c0,.11-.11,1.32-.11,1.43l.11,1c0,.11-.11,1.1-.11,1.21v1.09c0,.11.22.44.22.55s.11,2.08.11,2.3c0,.54.11,1.2.11,1.31a17.45,17.45,0,0,0,.43,3.28c.11.44.44,2.09.44,2.2s.22.76.22.87.22,1.42.22,1.64.22.55.22.66l.22.77c0,.11.55,2,.55,2.08C510.77,385,512.08,388.12,514.27,388.12ZM480.88,369a14.07,14.07,0,0,0-1.31,1.53c-.11.33-1.1,1.64-1.21,2.08a22,22,0,0,0-2.19,4.71v.76c0,.11-.32,1.21-.32,1.21.11,1,.11,2,.22,2.3.43,1.2,1.09,1.2,2.18,1.2s2-1.09,2.41-1.75l1.1-1.53a7.35,7.35,0,0,1,1.09-2.41,61.69,61.69,0,0,0,1.65-6.46,26.48,26.48,0,0,0,.32-4.49,9.38,9.38,0,0,0-.11-1.86A35.85,35.85,0,0,0,480.88,369Zm5.81-28.69c.1-.76,1-2.19,1-3.17,0-.33-.11-.44-.22-.44s-.44.33-.55.55a6.35,6.35,0,0,0-.21,1.53c0,.11-.11.77-.11.87Z" transform="translate(-222.03 -138.72)"/><path class="cls-1" d="M526.32,369.08c-.66.87-1.54,2.51-2.85,2.73H523a8.45,8.45,0,0,1-1.75-.22c-.11,0-.44-.43-.44-.43-1-.66-2.08-1-2.84-2-1-1.31-.66-2.29-1.1-3.94-.33-1.2-.44-2.51-.44-6.35,0-.11.33-1.09.33-1.2a32.43,32.43,0,0,1,3-10.62,18.66,18.66,0,0,1,4.81-6.79c1.87-1.86,4.06-3.39,6.57-3.39A7.93,7.93,0,0,1,535,338c3.29,1.75,4.17,5.7,4.17,9.86a14.61,14.61,0,0,1-1.65,6.67l-.65.44-.22-.55a10.09,10.09,0,0,1,.65-2.29c0-.11.33-.66.33-.77a20.88,20.88,0,0,0,.55-4.49,13.3,13.3,0,0,0-1.31-5.69c0-.11-.22-.88-.22-.88l-.44-.33a6.92,6.92,0,0,0-4.49-2.08,3.83,3.83,0,0,0-1.2.22,7.51,7.51,0,0,0-3.29,2.85l-1.09,1.31a9.3,9.3,0,0,0-.88,2.19,7.39,7.39,0,0,0-.66,1.32,27.2,27.2,0,0,0-1.09,3.94,32.54,32.54,0,0,0-.88,3.5v1.53c0,.11-.21.77-.21.88a68.85,68.85,0,0,0-.66,10.62c0,3.94,1,4.6,1.2,4.6,1.64,0,3.94-4.27,4.27-5v-.66c.11-1.09.77-1.75,1.1-2.73,0-.88.22-2.19.22-2.41s.21-2.74.21-3.07a7.07,7.07,0,0,1,.88-3.06,1.37,1.37,0,0,1,.88-.66h2a7.7,7.7,0,0,1,1.31,1.31,2.07,2.07,0,0,1,.22.88c0,.66-.11,2-.11,2.63,0,2.08-.33,3.17-.33,4.81a25.92,25.92,0,0,0,.22,3.07,30.58,30.58,0,0,0,.66,3.07c.54,1.64,1.31,2.51,2.19,2.51a4.19,4.19,0,0,0,2.63-1.53,20.25,20.25,0,0,0,2.62-3.39l1.21-2.19a4.18,4.18,0,0,0,.43-1.1c.44-1,1.87-3.17,2.08-4.38s1.65-3.5,2-4.27a1.41,1.41,0,0,1,1-.65c.22,0,.44.32.44.43a46.1,46.1,0,0,1-1.75,4.27l-1.32,2.85A34,34,0,0,1,543.5,366l-.43.66c0,.11-.77.43-.77.54s-.11.88-.11,1a9.76,9.76,0,0,1-1.64,2l-1,.88a3.33,3.33,0,0,1-2.84,1.42,3.87,3.87,0,0,1-2.08-.44c-.11,0-1.21-.66-1.32-.66-1.09-.76-1.86-.76-3-3.06a8.61,8.61,0,0,1-2-3.72A16.87,16.87,0,0,1,526.32,369.08Z" transform="translate(-222.03 -138.72)"/><path class="cls-1" d="M548.32,356.05a1.4,1.4,0,0,1-.77.44.5.5,0,0,1-.43-.55v-.44l.65-1.31a1.39,1.39,0,0,0,.22-.66c1.21-2.19,2.3-3.5,3.62-3.5a4.2,4.2,0,0,1,1.09.32,9,9,0,0,1,2.41,1.76,6.7,6.7,0,0,1,1,3.28,10.76,10.76,0,0,1,.22,1.31c.11.11.33.11.66.11s.66-.43.77-.76c.54-1.1.87-2.08,1.31-3.07.55-1.53,1.42-3,2.08-4.38.44-.87.77-1.75,1.31-2.63.22-.21.44-.65.88-1.09l1.1-2.19.43-.44c1.32-1.53,2.08-3.61,3.73-4.81l.87-.44.22-.44a3.62,3.62,0,0,1,.66-.66h1.31c1,.11,1.64,1.1,2.08,1.75a5.65,5.65,0,0,1,1.1,2.63,15.2,15.2,0,0,1,.65,3.83v.55c0,.33-.22,3.18-.22,3.5v4.16c0,.11-.22,1.21-.22,1.32-.21,2.74-.32,5.47-.32,8.21,0,1.42,0,2.52.11,4,.43.77.54,2.3,1.86,2.3s2.4-1.2,4.38-3.72c.76-.44,1-1.1,1.31-1.32,0-.11.22-.54.22-.65a7.32,7.32,0,0,1,.66-1.32c0-.11.54-1.2.54-1.31.77-1.42,1.65-3.5,2.41-5,.11,0,.44-.11.66-.11s.44.33.44.55a16.81,16.81,0,0,1-1.32,3.29c-1.75,3.06-2.41,4.7-4.6,7.22-1.53,2-3.17,3.94-5.14,3.94a6.49,6.49,0,0,1-5.37-3c-1.31-1.43-1.75-4.6-1.86-6.46v-5.7c0-.76.22-4.81.22-5.8,0-.44.22-2.19.22-2.41a13.69,13.69,0,0,1,.44-1.75c0-.22.22-1.53.22-1.75,0-.44.22-2,.22-2.19a13.07,13.07,0,0,0,.33-2.19,1.45,1.45,0,0,0-.55-1.31l-2.41,2.4c-.22.66-1,1.21-1.31,1.76-.33.33-.33,1-.88,1.53-1,1.42-2.19,3.06-3.07,4.6a22.47,22.47,0,0,0-.87,2.41,7.31,7.31,0,0,0-.66,1.31c0,.11-.22.77-.22.88l-.87,1.53a5.29,5.29,0,0,0-.44,1.2,7.58,7.58,0,0,1-.44,1.1,18,18,0,0,0-.66,2.63l-1.09,3.28c-.22.66-.66,1.31-.88,2-.33.88-.65,2.3-1.09,3.28-.11.33-.66.44-.88.44h-.87a1.61,1.61,0,0,1-.22-.44,17,17,0,0,1-1.54-7V359c0-.22.22-1.2.33-2.08a4.19,4.19,0,0,1,.11-1,6.44,6.44,0,0,0-.33-2.08c-.21-1.43-.43-2-1.09-2-.44,0-.77.43-1.2,1.31-.11,0-.44.22-.44.44l-.11.76Zm23-31a.85.85,0,0,1,.88-.76,4,4,0,0,1,1,.65,4.43,4.43,0,0,1,1,2.19v.66c0,.66-.22,1.86-.22,2a5.12,5.12,0,0,1-1,2.41c-.76,1.2-2.51,1.31-3.94,1.31a13.16,13.16,0,0,1-3.61-.65c-1-.22-2-.88-2.74-1.1a17.25,17.25,0,0,0-2.3-1,22.2,22.2,0,0,1-2.19-1c-.54,0-1.09-.11-1.86-.11-1.09,0-3.17,1-3.17,2.41a2,2,0,0,0,.55,1.31c.21.33.43.44,1,.44a.83.83,0,0,1,.44.22,1.26,1.26,0,0,1,.33.77c0,.33-.22.54-.77.65s-1.31-.76-1.75-1.53a5.55,5.55,0,0,1-.55-2.41,16.41,16.41,0,0,1,.22-2.3,6.07,6.07,0,0,1,1.53-2.51,2.86,2.86,0,0,1,2-.66h.55a22.81,22.81,0,0,1,2.85.87l3,1.32a27,27,0,0,0,4.16,1.31l2.19.22h2.08a3.78,3.78,0,0,0,1.54-.33c.43-.22.76-1.2.87-2a6,6,0,0,0-.11-.76,3.06,3.06,0,0,0-1.53-1.1A.6.6,0,0,1,571.31,325.06Z" transform="translate(-222.03 -138.72)"/><path class="cls-1" d="M603.94,362.4c-2.19-.44-3.62-4.27-3.62-6.57,0-1.86.88-4.16,3-4.16,1.31,0,2.19,1.2,2.74,3.17a7.46,7.46,0,0,1,.22,2.3c0,1.1-.11,2.41-.22,3.61,1.64-.1,3-1.75,3.72-3.17a31.38,31.38,0,0,0,2.08-4.82,2.41,2.41,0,0,1,1,.66,22.29,22.29,0,0,1-2.08,5.25c-.65.88-1.09,1.21-1.31,1.65-1.09,1.09-2.3,2.19-3.61,2.3a13.65,13.65,0,0,1-1.53,5.14c-.22.77-.55.88-1,1.53a3.86,3.86,0,0,0-.55.88,7.37,7.37,0,0,1-6.13,2.74,9.74,9.74,0,0,1-3.28-.55,12.17,12.17,0,0,1-7-6.57,11.39,11.39,0,0,1-.44-1.86c0-.11-.44-.88-.44-1-.21-.76-.32-.65-.32-3.5a14.93,14.93,0,0,1,.32-2.95,10.65,10.65,0,0,1,.22-1.32c0-.11.44-1.09.44-1.2v-.44c0-.22.22-.88.22-1a1.55,1.55,0,0,0,.22-.43l-.22-.44,1.1-.66a8.69,8.69,0,0,1,.32-1.86c.22-.22.66-.77.88-.77V348s.77-.88,1.09-1.21,2.08-1.86,2.41-2.19a11.48,11.48,0,0,1,6.35-2.3,18.1,18.1,0,0,1,2.63-.22,3.54,3.54,0,0,1,1.53.44c.77.66,1.54.55,2,1.64a.47.47,0,0,1-.43.22,8.5,8.5,0,0,0-3.84-1.42,6.07,6.07,0,0,0-3.5,1.09c-3.5,2.74-4.6,7.67-5,11.5a17.84,17.84,0,0,0-.43,4.38c0,3.83.54,10.73,5.58,11.49a5.72,5.72,0,0,0,2.74-.65,1.37,1.37,0,0,0,.76-.44l.44-.66A10.29,10.29,0,0,0,603.94,362.4Zm.33-1.75c.11-1.32.11-2.52.11-3.18,0-.44-.11-.55-.11-1v-.44c-.11-1.54-.77-2.63-1.21-2.63-.22,0-.66.22-.66,2.08C602.4,356.49,603,359.66,604.27,360.65Z" transform="translate(-222.03 -138.72)"/></g><g id="camara"><path class="cls-2" d="M361.34,211.21s1.2,14.49,0,43.72c-.49,12-.39,28.24-.39,28.24" transform="translate(-222.03 -138.72)"/><path class="cls-2" d="M383.23,211.21s-8.67,21.66-12.48,38.19-9.8,33.77-9.8,33.77" transform="translate(-222.03 -138.72)"/><path class="cls-2" d="M344.11,215.63s9.42,14.41,11.05,35.92A165.2,165.2,0,0,0,361,283.17" transform="translate(-222.03 -138.72)"/><path class="cls-1" d="M402.52,149.46c-15.3-4.6-29.19,7.56-33.37,21.45-4,13.32-1.49,36.31,12.23,42.22a7.91,7.91,0,0,1-.86,1.52c-.46.49.48.15,1.64.5s.91,1,2.14,1.38c.76.22.47-1.11.21-2.4,14.87,3.17,29.83-14.93,33.89-28.41C422.57,171.83,417.82,154.06,402.52,149.46Z" transform="translate(-222.03 -138.72)"/><path class="cls-3" d="M398.31,155.25a19,19,0,0,0-8.88,3,22.49,22.49,0,0,0-6.41,6.55c-.41.66-.87,1.29-1.24,2l-1.09,2.07-1,2.15c-.27.74-.55,1.48-.85,2.21-1.07,3-1.88,6.11-2.69,9.31a32.63,32.63,0,0,1,.74-9.88,28,28,0,0,1,4-9.28c.46-.72,1-1.36,1.55-2s1.17-1.27,1.77-1.88,1.33-1.1,2-1.62a20,20,0,0,1,2.23-1.31A14.41,14.41,0,0,1,398.31,155.25Z" transform="translate(-222.03 -138.72)"/><path class="cls-1" d="M356.94,173.2c-4.45-13.8-18.46-25.72-33.67-20.81S303.55,175.2,308,189c4.27,13.23,19.4,30.72,34,27.79a7.5,7.5,0,0,1,.16,1.74c-.1.67.48-.15,1.64-.53s1.31.32,2.54-.08c.76-.24-.24-1.18-1.19-2.08C359.24,210,361.27,186.6,356.94,173.2Z" transform="translate(-222.03 -138.72)"/><path class="cls-3" d="M321.1,159.59a19,19,0,0,0-5.61,7.5,22.62,22.62,0,0,0-1.55,9c0,.77,0,1.55.1,2.32l.28,2.33.4,2.32c.2.77.39,1.54.56,2.31.82,3.08,1.93,6.09,3.08,9.19a32.18,32.18,0,0,1-5-8.56,27.83,27.83,0,0,1-2-9.88c0-.86.08-1.71.12-2.57s.24-1.7.39-2.54.47-1.67.73-2.48a20,20,0,0,1,1.09-2.35A14.44,14.44,0,0,1,321.1,159.59Z" transform="translate(-222.03 -138.72)"/><path class="cls-4" d="M385.61,277.69c-1.92.16-3.64.33-5.44.57-.44.05-.89.1-1.33.13s-.88.06-1.32.07c.1,1,0,2.47.4,2.57a4.36,4.36,0,0,0,2.52.22c.44-.07.89-.16,1.33-.25,1.34-.2,2.81-.05,4.06-.61.14,0-.09-.86-.08-1.29Z" transform="translate(-222.03 -138.72)"/><path class="cls-4" d="M339.56,282.73c-.07.81-.39,2-1.5,2a5.65,5.65,0,0,1-.71.17c-1.45.23-3-.24-3.11-1.75a2,2,0,0,1,1.67-2.19,4.49,4.49,0,0,1,.64-.1,4.42,4.42,0,0,1,.63,0,2.9,2.9,0,0,1,2.16,1.2A1.63,1.63,0,0,1,339.56,282.73Z" transform="translate(-222.03 -138.72)"/><path class="cls-5" d="M343.92,283.54c-1.95.19-3.81.37-5.81.64l-.85.12a17.11,17.11,0,0,1-2.57.2l-.85.07-.84.05-.7.06-2.12.21s0,.35.07.7l.07.7,3.18-.32.57-.05,1.71-.15.84-.07,1.69-.17.55,0a31.54,31.54,0,0,0,5.25-.66,3.62,3.62,0,0,0-.12-.59Z" transform="translate(-222.03 -138.72)"/><path class="cls-4" d="M344.72,283.45l-7.27.73-.73.07-1.47.14-.84.09-1.68.16-.73.07-2.19.21-.53.06,0-.35-.08-.76a5.34,5.34,0,0,0,0-.9,22.74,22.74,0,0,1,3.78-.62l.77-.05a22,22,0,0,0,2.58-.11l.84-.09c2.49-.31,4.88-1,7.38-.65.16.13.11,1.15.19,1.65Z" transform="translate(-222.03 -138.72)"/><path class="cls-6" d="M331.14,321.72l.16,1.63a1.65,1.65,0,0,0,.59,1.1,1.6,1.6,0,0,0,1.2.36c5-1.15,10-1.06,15-1.51l1.61-.14,1.14-.12,1.48-.26,1.48-.25c4.42-.43,9-.75,13.45-1.24l.91-.07,4.53-.34,1.11-.11,7.11-.7,1-.1c3.71-.31,7.62-.26,11.32-1.05a1.74,1.74,0,0,0,1.12-.63,6.22,6.22,0,0,0,.21-3.58L331.07,321Z" transform="translate(-222.03 -138.72)"/><path class="cls-4" d="M391.25,282.46c-.08-.72.14-1.46-.59-2a1.6,1.6,0,0,0-1.19-.37l-8.86.88-1,.1c-4.55.63-9.12,1.23-13.69,1.43l-1.56.17c-2.62.27-5.24.52-7.85.69l-1.13.11-13.78,1.37-1,.1c-4.44,1.64-14.43-1.28-12.52,6,.05.47.1,1,.16,1.57.28,1.58.5,3.15.69,4.72L392,291A42.29,42.29,0,0,1,391.25,282.46Z" transform="translate(-222.03 -138.72)"/><path class="cls-5" d="M394.26,311.77c-.07-.54-.13-1.07-.19-1.61-.55-4.81-1-9.59-1.41-14.44,0-.39-.08-.79-.11-1.18-.19-1.18-.4-2.35-.59-3.52l-63,6.26c.25,2,.43,4,.57,6.07,0,.52.07,1,.1,1.55A122.14,122.14,0,0,1,331,320.54l.05.47,63.54-6.3A16.93,16.93,0,0,1,394.26,311.77Z" transform="translate(-222.03 -138.72)"/><path class="cls-4" d="M343.61,294.3l-.64.07-3,.28-.75.08c-2.5.24-5,1.07-7.12.41-.44-.1-.32-1.85-.43-2.88,0-.19,0-.38-.05-.56l-.12-1.11c-.08-.89-.37-2.31-.08-2.34a9.63,9.63,0,0,1,4.19-.85l.91,0c1.92.05,3.9-.44,5.71-.51l.64-.07.08.78c.13,1.42.26,2.71.41,4.09l0,.53Z" transform="translate(-222.03 -138.72)"/><path class="cls-7" d="M342.42,293.25l-2.58.25-.89.09c-2.06.2-4.17.85-6,.3-.3-.11-.28-1.42-.3-2.26,0-.22-.07-.43-.1-.63-.09-.62-.14-1.18-.21-1.83l2.38-.25.8-.09c2.1-.47,4.3-.26,6.42-.76a8.3,8.3,0,0,0,.15,2.17l.12.72a9.79,9.79,0,0,1,.1,1.49C342.39,292.93,342.42,293.25,342.42,293.25Z" transform="translate(-222.03 -138.72)"/><path class="cls-2" d="M370.23,282l0,.63c0,.21,0,.42,0,.63.17,1,.26,2,.34,3.09,0,.53.07,1.06.11,1.59.08,1.87.54,3.19.51,5.1" transform="translate(-222.03 -138.72)"/><path class="cls-4" d="M373.79,301.35c0,.38,0,.76,0,1.14a11.18,11.18,0,0,1-1,5.73,12.29,12.29,0,0,1-.83,1.51,13.56,13.56,0,0,1-8.27,5.87,10.82,10.82,0,0,1-1.58.33c-5.87.79-12.18-3-14-8.59a14,14,0,0,1-.49-1.68,13.31,13.31,0,0,1,.86-8.54,14.09,14.09,0,0,1,10.86-7.64,11.27,11.27,0,0,1,1.74-.08c5.72,0,11.8,4.29,12.39,10.32C373.64,300.26,373.73,300.8,373.79,301.35Z" transform="translate(-222.03 -138.72)"/><path class="cls-7" d="M369.68,301.73a10.05,10.05,0,0,1,.11,1.22,8.7,8.7,0,0,1,0,1,7.75,7.75,0,0,1-2,4.65,9.38,9.38,0,0,1-1,1.05,9.5,9.5,0,0,1-5.42,2.33,8.66,8.66,0,0,1-1.61,0,9.89,9.89,0,0,1-6.89-4,9.13,9.13,0,0,1-1.53-4.27,8.14,8.14,0,0,1-.05-1.48,7.81,7.81,0,0,1,2.34-5.34,11.94,11.94,0,0,1,1-1,13.23,13.23,0,0,1,1.13-.84,11.06,11.06,0,0,1,1.27-.69,11.28,11.28,0,0,1,1.37-.51c4.59-1.83,10.39,1.21,11.11,6.28A11.42,11.42,0,0,1,369.68,301.73Z" transform="translate(-222.03 -138.72)"/><path class="cls-8" d="M329.21,284.82s0-2,0-2,.66,2,.71,2,0-2.12,0-2.12.69,2,.74,2,0-2.11,0-2.11.69,2,.74,2,0-2.11,0-2.11.73,2,.78,2,0-2.11,0-2.11.63,2,.7,2,0-2.11,0-2.11.72,2,.76,2,0-2.11,0-2.11.64,2,.7,2,0-2.11,0-2.11.69,2,.74,2,0-2.11,0-2.11.73,2,.78,2,0-2.11,0-2.11.66,2,.71,2,0-2.12,0-2.12.72,2,.77,2,0-2.12,0-2.12.7,2,.75,2,0-2.11,0-2.11.62,2,.66,2,0-2.11,0-2.11.63,2,.68,2,0-2.11,0-2.11.62,2,.67,2,0-2.11,0-2.11.72,2,.76,2,0-2.11,0-2.11.73,2,.79,2,0-2.11,0-2.11.66,2,.71,2,0-2.12,0-2.12.66,2,.71,2,0-2.11,0-2.11.67,2,.73,2,0-2.12,0-2.12.74,2,.79,2,0-2,0-2" transform="translate(-222.03 -138.72)"/><circle class="cls-3" cx="134.39" cy="159.07" r="3.68"/><path class="cls-7" d="M389.62,172c0-16-10.69-33.31-28.33-33.31S332.81,156,332.81,172c0,15.37,10,38.88,26.36,40.77a9.09,9.09,0,0,1-.42,1.89c-.33.66.56,0,1.9,0s1.27.78,2.69.78c.89,0,.15-1.33-.53-2.6C379.54,211.49,389.62,187.58,389.62,172Z" transform="translate(-222.03 -138.72)"/><path class="cls-3" d="M358.68,146.19a21.06,21.06,0,0,0-8.45,6,25.38,25.38,0,0,0-4.7,9,42.37,42.37,0,0,0-1.74,10.22c-.18,3.51,0,7.06.12,10.7a35.58,35.58,0,0,1-2.35-10.69,30.28,30.28,0,0,1,1.24-11.08,21.89,21.89,0,0,1,5.82-9.65A15.89,15.89,0,0,1,358.68,146.19Z" transform="translate(-222.03 -138.72)"/></g></svg>